<svg width="20" height="20" viewBox="0 0 20 20" fill="none" xmlns="http://www.w3.org/2000/svg">
<path d="M10 12C10.1978 12 10.3911 11.9414 10.5556 11.8315C10.72 11.7216 10.8482 11.5654 10.9239 11.3827C10.9996 11.2 11.0194 10.9989 10.9808 10.8049C10.9422 10.6109 10.847 10.4327 10.7071 10.2929C10.5673 10.153 10.3891 10.0578 10.1951 10.0192C10.0011 9.98063 9.80004 10.0004 9.61732 10.0761C9.43459 10.1518 9.27841 10.28 9.16853 10.4444C9.05865 10.6089 9 10.8022 9 11C9 11.2652 9.10536 11.5196 9.29289 11.7071C9.48043 11.8946 9.73478 12 10 12ZM15 12C15.1978 12 15.3911 11.9414 15.5556 11.8315C15.72 11.7216 15.8482 11.5654 15.9239 11.3827C15.9996 11.2 16.0194 10.9989 15.9808 10.8049C15.9422 10.6109 15.847 10.4327 15.7071 10.2929C15.5673 10.153 15.3891 10.0578 15.1951 10.0192C15.0011 9.98063 14.8 10.0004 14.6173 10.0761C14.4346 10.1518 14.2784 10.28 14.1685 10.4444C14.0586 10.6089 14 10.8022 14 11C14 11.2652 14.1054 11.5196 14.2929 11.7071C14.4804 11.8946 14.7348 12 15 12ZM10 16C10.1978 16 10.3911 15.9414 10.5556 15.8315C10.72 15.7216 10.8482 15.5654 10.9239 15.3827C10.9996 15.2 11.0194 14.9989 10.9808 14.8049C10.9422 14.6109 10.847 14.4327 10.7071 14.2929C10.5673 14.153 10.3891 14.0578 10.1951 14.0192C10.0011 13.9806 9.80004 14.0004 9.61732 14.0761C9.43459 14.1518 9.27841 14.28 9.16853 14.4444C9.05865 14.6089 9 14.8022 9 15C9 15.2652 9.10536 15.5196 9.29289 15.7071C9.48043 15.8946 9.73478 16 10 16ZM15 16C15.1978 16 15.3911 15.9414 15.5556 15.8315C15.72 15.7216 15.8482 15.5654 15.9239 15.3827C15.9996 15.2 16.0194 14.9989 15.9808 14.8049C15.9422 14.6109 15.847 14.4327 15.7071 14.2929C15.5673 14.153 15.3891 14.0578 15.1951 14.0192C15.0011 13.9806 14.8 14.0004 14.6173 14.0761C14.4346 14.1518 14.2784 14.28 14.1685 14.4444C14.0586 14.6089 14 14.8022 14 15C14 15.2652 14.1054 15.5196 14.2929 15.7071C14.4804 15.8946 14.7348 16 15 16ZM5 12C5.19778 12 5.39112 11.9414 5.55557 11.8315C5.72002 11.7216 5.84819 11.5654 5.92388 11.3827C5.99957 11.2 6.01937 10.9989 5.98079 10.8049C5.9422 10.6109 5.84696 10.4327 5.70711 10.2929C5.56725 10.153 5.38907 10.0578 5.19509 10.0192C5.00111 9.98063 4.80004 10.0004 4.61732 10.0761C4.43459 10.1518 4.27841 10.28 4.16853 10.4444C4.05865 10.6089 4 10.8022 4 11C4 11.2652 4.10536 11.5196 4.29289 11.7071C4.48043 11.8946 4.73478 12 5 12ZM17 2H16V1C16 0.734784 15.8946 0.48043 15.7071 0.292893C15.5196 0.105357 15.2652 0 15 0C14.7348 0 14.4804 0.105357 14.2929 0.292893C14.1054 0.48043 14 0.734784 14 1V2H6V1C6 0.734784 5.89464 0.48043 5.70711 0.292893C5.51957 0.105357 5.26522 0 5 0C4.73478 0 4.48043 0.105357 4.29289 0.292893C4.10536 0.48043 4 0.734784 4 1V2H3C2.20435 2 1.44129 2.31607 0.87868 2.87868C0.316071 3.44129 0 4.20435 0 5V17C0 17.7956 0.316071 18.5587 0.87868 19.1213C1.44129 19.6839 2.20435 20 3 20H17C17.7956 20 18.5587 19.6839 19.1213 19.1213C19.6839 18.5587 20 17.7956 20 17V5C20 4.20435 19.6839 3.44129 19.1213 2.87868C18.5587 2.31607 17.7956 2 17 2ZM18 17C18 17.2652 17.8946 17.5196 17.7071 17.7071C17.5196 17.8946 17.2652 18 17 18H3C2.73478 18 2.48043 17.8946 2.29289 17.7071C2.10536 17.5196 2 17.2652 2 17V8H18V17ZM18 6H2V5C2 4.73478 2.10536 4.48043 2.29289 4.29289C2.48043 4.10536 2.73478 4 3 4H17C17.2652 4 17.5196 4.10536 17.7071 4.29289C17.8946 4.48043 18 4.73478 18 5V6ZM5 16C5.19778 16 5.39112 15.9414 5.55557 15.8315C5.72002 15.7216 5.84819 15.5654 5.92388 15.3827C5.99957 15.2 6.01937 14.9989 5.98079 14.8049C5.9422 14.6109 5.84696 14.4327 5.70711 14.2929C5.56725 14.153 5.38907 14.0578 5.19509 14.0192C5.00111 13.9806 4.80004 14.0004 4.61732 14.0761C4.43459 14.1518 4.27841 14.28 4.16853 14.4444C4.05865 14.6089 4 14.8022 4 15C4 15.2652 4.10536 15.5196 4.29289 15.7071C4.48043 15.8946 4.73478 16 5 16Z" fill="white"/>
</svg>
