<svg width="22" height="38" viewBox="0 0 22 38" fill="none" xmlns="http://www.w3.org/2000/svg">
<path d="M10.7207 18.4199C9.83271 18.4199 8.95901 18.291 8.09963 18.0332C7.24026 17.7754 6.43818 17.3958 5.69338 16.8945C4.94859 16.4076 4.28974 15.8203 3.71682 15.1328C3.15823 14.431 2.70706 13.6647 2.36331 12.834C2.01956 12.0033 1.80471 11.1439 1.71877 10.2559C1.63284 9.36784 1.67581 8.48698 1.84768 7.61328C2.01956 6.73958 2.31318 5.90885 2.72854 5.12109C3.15823 4.31901 3.68818 3.60286 4.31838 2.97266C4.94859 2.34245 5.65758 1.81966 6.44534 1.4043C7.24742 0.974609 8.08531 0.673828 8.95901 0.501953C9.83271 0.330078 10.7136 0.287109 11.6016 0.373047C12.5039 0.458984 13.3633 0.673828 14.1797 1.01758C15.0104 1.36133 15.7696 1.81966 16.4571 2.39258C17.1589 2.95117 17.7533 3.60286 18.2403 4.34766C18.7416 5.09245 19.1211 5.89453 19.3789 6.75391C19.6367 7.61328 19.7656 8.48698 19.7656 9.375C19.7656 9.97656 19.7084 10.571 19.5938 11.1582C19.4792 11.7311 19.3073 12.2897 19.0781 12.834C18.849 13.3783 18.5697 13.901 18.2403 14.4023C17.9108 14.8893 17.5384 15.3477 17.1231 15.7773C16.6934 16.1927 16.2351 16.5651 15.7481 16.8945C15.2468 17.224 14.724 17.5033 14.1797 17.7324C13.6354 17.9616 13.0768 18.1335 12.5039 18.248C11.9167 18.3626 11.3223 18.4199 10.7207 18.4199ZM10.7207 1.85547C9.97594 1.85547 9.24547 1.96289 8.52932 2.17773C7.8275 2.39258 7.16864 2.70768 6.55276 3.12305C5.93687 3.53841 5.3926 4.03255 4.91995 4.60547C4.44729 5.17839 4.06773 5.80859 3.78127 6.49609C3.49482 7.18359 3.31578 7.89974 3.24417 8.64453C3.17255 9.375 3.20836 10.1055 3.35159 10.8359C3.49482 11.5664 3.73831 12.2611 4.08206 12.9199C4.44013 13.5788 4.88414 14.166 5.41409 14.6816C5.92971 15.2116 6.51695 15.6556 7.17581 16.0137C7.83466 16.3574 8.52932 16.6009 9.25979 16.7441C9.99026 16.8874 10.7207 16.9232 11.4512 16.8516C12.196 16.7799 12.9121 16.6009 13.5996 16.3145C14.2871 16.028 14.9173 15.6556 15.4903 15.1973C16.0632 14.7246 16.5573 14.1732 16.9727 13.543C17.388 12.9271 17.7031 12.2682 17.918 11.5664C18.1328 10.8503 18.2403 10.1198 18.2403 9.375C18.2403 8.3724 18.0469 7.41276 17.6602 6.49609C17.2735 5.57943 16.7292 4.77018 16.0274 4.06836C15.3255 3.36654 14.5163 2.82227 13.5996 2.43555C12.683 2.04883 11.7233 1.85547 10.7207 1.85547ZM10.4844 11.8672C10.3841 11.8672 10.2839 11.8529 10.1836 11.8242C10.0977 11.7812 10.0189 11.724 9.94729 11.6523C9.87568 11.5664 9.81838 11.4805 9.77542 11.3945C9.74677 11.2943 9.73245 11.194 9.73245 11.0938C9.73245 10.8073 9.77542 10.528 9.86135 10.2559C9.94729 9.98372 10.0762 9.73307 10.2481 9.50391C10.4199 9.27474 10.6205 9.08138 10.8496 8.92383C11.0788 8.75195 11.3366 8.62305 11.6231 8.53711C11.7377 8.49414 11.8451 8.43685 11.9453 8.36523C12.0456 8.29362 12.1315 8.20768 12.2031 8.10742C12.2748 8.00716 12.3249 7.89974 12.3535 7.78516C12.3965 7.67057 12.418 7.54883 12.418 7.41992C12.418 7.20508 12.375 6.99023 12.2891 6.77539C12.2031 6.56055 12.0814 6.37435 11.9239 6.2168C11.7663 6.05924 11.5801 5.9375 11.3653 5.85156C11.1647 5.76562 10.9499 5.72266 10.7207 5.72266C10.4916 5.72266 10.2696 5.76562 10.0547 5.85156C9.85419 5.9375 9.67515 6.05924 9.5176 6.2168C9.36005 6.37435 9.23831 6.56055 9.15237 6.77539C9.06643 6.99023 9.02346 7.20508 9.02346 7.41992C9.02346 7.52018 9.00198 7.62044 8.95901 7.7207C8.91604 7.82096 8.85875 7.9069 8.78713 7.97852C8.71552 8.05013 8.62958 8.10742 8.52932 8.15039C8.44338 8.17904 8.35029 8.19336 8.25002 8.19336C8.14976 8.19336 8.0495 8.17904 7.94924 8.15039C7.86331 8.10742 7.78453 8.05013 7.71292 7.97852C7.6413 7.9069 7.58401 7.82096 7.54104 7.7207C7.49807 7.62044 7.47659 7.52018 7.47659 7.41992C7.47659 6.99023 7.55536 6.58203 7.71292 6.19531C7.88479 5.79427 8.12112 5.44336 8.4219 5.14258C8.737 4.82747 9.08792 4.59115 9.47463 4.43359C9.87568 4.27604 10.291 4.19727 10.7207 4.19727C11.1504 4.19727 11.5586 4.27604 11.9453 4.43359C12.3464 4.59115 12.7045 4.82747 13.0196 5.14258C13.3203 5.44336 13.5495 5.79427 13.7071 6.19531C13.8789 6.58203 13.9649 6.99023 13.9649 7.41992C13.9649 7.70638 13.9147 7.98568 13.8145 8.25781C13.7285 8.52995 13.6068 8.78776 13.4492 9.03125C13.2774 9.26042 13.0697 9.46094 12.8262 9.63281C12.597 9.79036 12.3464 9.91211 12.0742 9.99805C11.9597 10.0267 11.8522 10.0768 11.752 10.1484C11.6517 10.2201 11.5586 10.306 11.4727 10.4062C11.4011 10.5065 11.3438 10.6211 11.3008 10.75C11.2722 10.8646 11.2578 10.9792 11.2578 11.0938C11.2578 11.151 11.2507 11.2083 11.2364 11.2656C11.2364 11.3086 11.222 11.3516 11.1934 11.3945C11.1791 11.4375 11.1576 11.4805 11.1289 11.5234C11.1003 11.5664 11.0716 11.6022 11.043 11.6309C11 11.6738 10.9571 11.7096 10.9141 11.7383C10.8711 11.7669 10.8281 11.7884 10.7852 11.8027C10.7422 11.8314 10.6921 11.8529 10.6348 11.8672C10.5918 11.8672 10.5417 11.8672 10.4844 11.8672ZM10.4844 14.4023C10.7422 14.4023 10.9571 14.3164 11.1289 14.1445C11.3151 13.9583 11.4082 13.7363 11.4082 13.4785C11.4082 13.235 11.3151 13.0273 11.1289 12.8555C10.9571 12.6693 10.7422 12.5762 10.4844 12.5762C10.2409 12.5762 10.0261 12.6693 9.83987 12.8555C9.66799 13.0273 9.58206 13.235 9.58206 13.4785C9.58206 13.7363 9.66799 13.9583 9.83987 14.1445C10.0261 14.3164 10.2409 14.4023 10.4844 14.4023Z" fill="white"/>
<path d="M6.44983 35H5.50745V31.7139H1.92346V35H0.985962V27.8906H1.92346V30.9473H5.50745V27.8906H6.44983V35Z" fill="white"/>
<path d="M10.5656 35.0977C9.8495 35.0977 9.26682 34.8633 8.8176 34.3945C8.36838 33.9225 8.14377 33.2926 8.14377 32.5049V32.3389C8.14377 31.8148 8.24306 31.3477 8.44163 30.9375C8.64345 30.5241 8.9234 30.2018 9.28147 29.9707C9.6428 29.7363 10.0334 29.6191 10.4533 29.6191C11.1402 29.6191 11.674 29.8454 12.0549 30.2979C12.4358 30.7503 12.6262 31.3981 12.6262 32.2412V32.6172H9.04709C9.06012 33.138 9.21148 33.5596 9.5012 33.8818C9.79416 34.2008 10.1653 34.3604 10.6145 34.3604C10.9335 34.3604 11.2037 34.2952 11.425 34.165C11.6464 34.0348 11.8401 33.8623 12.0061 33.6475L12.5578 34.0771C12.1151 34.7575 11.4511 35.0977 10.5656 35.0977ZM10.4533 30.3613C10.0888 30.3613 9.78277 30.4948 9.53538 30.7617C9.28798 31.0254 9.13498 31.3965 9.07639 31.875H11.7229V31.8066C11.6968 31.3477 11.5731 30.9928 11.3518 30.7422C11.1304 30.4883 10.8309 30.3613 10.4533 30.3613Z" fill="white"/>
<path d="M15.0574 35H14.1541V27.5H15.0574V35Z" fill="white"/>
<path d="M21.3705 32.417C21.3705 33.221 21.1866 33.8688 20.8188 34.3604C20.4509 34.8519 19.9529 35.0977 19.3246 35.0977C18.6834 35.0977 18.1788 34.8942 17.811 34.4873V37.0312H16.9076V29.7168H17.7328L17.7768 30.3027C18.1446 29.847 18.6557 29.6191 19.31 29.6191C19.9448 29.6191 20.4461 29.8584 20.8139 30.3369C21.185 30.8154 21.3705 31.4811 21.3705 32.334V32.417ZM20.4672 32.3145C20.4672 31.7188 20.3403 31.2484 20.0864 30.9033C19.8324 30.5583 19.4841 30.3857 19.0414 30.3857C18.4946 30.3857 18.0844 30.6283 17.811 31.1133V33.6377C18.0811 34.1195 18.4946 34.3604 19.0512 34.3604C19.4841 34.3604 19.8276 34.1895 20.0815 33.8477C20.3386 33.5026 20.4672 32.9915 20.4672 32.3145Z" fill="white"/>
</svg>
