<svg width="21" height="21" viewBox="0 0 21 21" fill="none" xmlns="http://www.w3.org/2000/svg">
<path d="M20 6.82001C20.0048 6.75677 20.0048 6.69325 20 6.63001L18 1.63001C17.9219 1.43237 17.7828 1.26475 17.603 1.15147C17.4232 1.03819 17.212 0.985137 17 1.00001H3C2.79972 0.999818 2.604 1.05977 2.43818 1.17209C2.27237 1.28442 2.1441 1.44395 2.07 1.63001L0.0699999 6.63001C0.0651796 6.69325 0.0651796 6.75677 0.0699999 6.82001C0.0367708 6.87568 0.0131096 6.93652 0 7.00001C0.0111306 7.69125 0.201226 8.36781 0.551745 8.96369C0.902263 9.55957 1.40124 10.0544 2 10.4V20C2 20.2652 2.10536 20.5196 2.29289 20.7071C2.48043 20.8947 2.73478 21 3 21H17C17.2652 21 17.5196 20.8947 17.7071 20.7071C17.8946 20.5196 18 20.2652 18 20V10.44C18.6046 10.091 19.1072 9.58984 19.4581 8.98635C19.809 8.38287 19.9958 7.69807 20 7.00001C20.0094 6.94038 20.0094 6.87965 20 6.82001ZM11 19H9V15H11V19ZM16 19H13V14C13 13.7348 12.8946 13.4804 12.7071 13.2929C12.5196 13.1054 12.2652 13 12 13H8C7.73478 13 7.48043 13.1054 7.29289 13.2929C7.10536 13.4804 7 13.7348 7 14V19H4V11C4.56947 10.9968 5.13169 10.872 5.64905 10.634C6.16642 10.3961 6.627 10.0503 7 9.62001C7.37537 10.0456 7.83701 10.3865 8.35425 10.62C8.87149 10.8535 9.4325 10.9743 10 10.9743C10.5675 10.9743 11.1285 10.8535 11.6458 10.62C12.163 10.3865 12.6246 10.0456 13 9.62001C13.373 10.0503 13.8336 10.3961 14.3509 10.634C14.8683 10.872 15.4305 10.9968 16 11V19ZM16 9.00001C15.4696 9.00001 14.9609 8.7893 14.5858 8.41423C14.2107 8.03915 14 7.53045 14 7.00001C14 6.7348 13.8946 6.48044 13.7071 6.29291C13.5196 6.10537 13.2652 6.00001 13 6.00001C12.7348 6.00001 12.4804 6.10537 12.2929 6.29291C12.1054 6.48044 12 6.7348 12 7.00001C12 7.53045 11.7893 8.03915 11.4142 8.41423C11.0391 8.7893 10.5304 9.00001 10 9.00001C9.46957 9.00001 8.96086 8.7893 8.58579 8.41423C8.21071 8.03915 8 7.53045 8 7.00001C8 6.7348 7.89464 6.48044 7.70711 6.29291C7.51957 6.10537 7.26522 6.00001 7 6.00001C6.73478 6.00001 6.48043 6.10537 6.29289 6.29291C6.10536 6.48044 6 6.7348 6 7.00001C6.00985 7.26266 5.96787 7.52467 5.87646 7.77109C5.78505 8.01751 5.646 8.24351 5.46725 8.43619C5.28849 8.62887 5.07354 8.78446 4.83466 8.89407C4.59578 9.00368 4.33764 9.06516 4.075 9.07501C3.54457 9.0949 3.02796 8.90327 2.63882 8.54226C2.44614 8.36351 2.29055 8.14855 2.18094 7.90967C2.07133 7.67079 2.00985 7.41266 2 7.15001L3.68 3.00001H16.32L18 7.15001C17.9621 7.65403 17.7348 8.125 17.3637 8.46822C16.9927 8.81143 16.5054 9.00144 16 9.00001Z" fill="white" fill-opacity="0.7"/>
</svg>
