<svg width="46" height="26" viewBox="0 0 46 26" fill="none" xmlns="http://www.w3.org/2000/svg">
<g clip-path="url(#clip0_1_443)">
<path d="M14.0605 25.2716C13.6789 25.2716 13.3221 25.0898 13.0817 24.7728C12.8416 24.4563 12.7504 24.0467 12.8316 23.6494C13.0847 22.4076 13.4725 20.7314 13.9186 19.5827C13.6282 19.681 13.3288 19.6998 13.0393 19.6998C12.9887 19.6998 12.9346 19.6992 12.8743 19.698C12.6627 19.698 12.4583 19.6941 12.267 19.6869C12.0385 19.6779 11.8195 19.6219 11.6199 19.5257C11.5925 19.7187 11.5062 19.8987 11.3712 20.0369C11.0863 20.3272 10.638 20.7223 10.1055 20.9733C9.33634 21.3912 8.63584 21.5484 8.50462 21.5753C7.83358 21.7398 7.05394 21.8232 6.18727 21.8232C5.3206 21.8232 4.72375 21.7425 4.69788 21.7392C4.34395 21.6924 4.08287 21.365 4.09777 20.9862C4.10582 20.7799 4.1209 20.581 4.13871 20.4005C2.78946 20.2503 1.21972 19.6694 1.144 19.6412C0.908957 19.5534 0.73713 19.337 0.69533 19.0759C0.65353 18.8147 0.748437 18.5501 0.943048 18.3848C1.83113 17.6301 2.44443 16.8063 2.78928 16.2754C2.43844 15.9928 2.19157 15.7293 2.17616 15.7127C2.03808 15.5643 1.96647 15.3601 1.97949 15.1518C1.99251 14.9435 2.08913 14.7512 2.24451 14.6237L3.98299 13.1972C5.64489 11.7925 7.087 11.4976 8.00455 11.4976C8.51781 11.4976 8.89247 11.5907 9.07149 11.6466C9.2428 11.6994 9.39167 11.8143 9.4924 11.9687C9.64179 11.7435 9.83503 11.549 10.0589 11.3998C10.4858 11.1156 10.6416 10.9937 10.8067 10.8648C10.897 10.7941 10.9902 10.7215 11.1235 10.6244C10.6518 10.2123 10.2386 9.84426 9.87049 9.51629C9.27587 8.98653 8.76244 8.52908 8.17484 8.03647C7.80532 7.7278 7.62852 7.37851 7.65045 6.99882C7.66193 6.79886 7.74639 6.42135 8.18289 6.14072C8.7806 5.75647 9.25702 5.50079 9.78655 5.23655C10.6166 4.78347 11.7865 4.17085 12.6701 3.8121C12.8518 3.73853 13.0418 3.70138 13.2351 3.70138C13.7545 3.70138 14.246 3.97818 14.5372 4.42945C14.6028 4.41178 14.6708 4.40268 14.7395 4.40268C14.848 4.40268 14.9566 4.42562 15.0578 4.46951C15.0822 4.47935 15.1061 4.49082 15.1296 4.50375L16.7776 5.41265C16.9101 5.4855 17.0189 5.59148 17.097 5.71878C17.3565 5.72533 17.6227 5.80364 17.8886 5.95169C18.4342 6.25545 18.8658 6.5399 19.2233 6.83273C19.3384 6.3964 19.5813 5.96535 20.0908 5.6463C20.5174 5.37896 21.9852 4.50593 22.9533 4.50593C23.0881 4.50593 23.2151 4.52214 23.3307 4.55419C23.4009 4.57368 23.4691 4.59571 23.5354 4.62066C23.6254 4.23313 23.8647 3.91244 24.1929 3.74017C24.9905 3.32041 26.1916 2.83126 27.1811 2.52314C27.3087 2.48344 27.4398 2.46322 27.5705 2.46322C27.8648 2.46322 28.1424 2.5652 28.3681 2.74822C28.4682 2.53279 28.6119 2.32591 28.8156 2.14217C29.2485 1.75136 29.8276 1.55341 30.7444 1.32523C31.0199 1.25657 31.2818 1.22179 31.5227 1.22179C31.9887 1.22179 32.3443 1.35127 32.6098 1.52026C32.6318 1.48603 32.6547 1.45252 32.6787 1.41992C32.9648 1.03167 33.3732 0.796019 33.8291 0.756137C34.0554 0.736469 34.2855 0.734284 34.5078 0.732281C34.5931 0.731552 34.6736 0.730824 34.7521 0.729185C34.7627 0.729003 34.7725 0.728821 34.7824 0.728821C35.1024 0.728821 35.4127 0.835901 35.6762 1.02329C35.8841 0.910565 36.1507 0.855568 36.4875 0.855568C36.696 0.855568 36.9353 0.876875 37.1988 0.919124C37.5426 0.974303 37.8501 1.10014 38.116 1.2939C38.2409 1.22616 38.381 1.18864 38.5268 1.18864C38.5631 1.18864 38.5998 1.19101 38.6359 1.19556C38.6495 1.19739 38.6514 1.1972 38.663 1.19957C38.6644 1.19975 38.6721 1.20066 38.6741 1.20103C38.711 1.20595 39.1091 1.27952 39.5453 1.38878C40.4124 1.60567 40.7165 1.78068 40.8846 1.90888C41.0487 2.03417 41.1638 2.19224 41.2445 2.3607C41.4268 2.26509 41.6351 2.21483 41.8585 2.21483C42.0094 2.21483 42.1679 2.23777 42.3293 2.28293C43.2833 2.54954 43.9722 2.90611 44.428 3.14194C44.532 3.19584 44.6219 3.24228 44.6999 3.27998C44.7045 3.28216 44.709 3.28453 44.7134 3.28672C44.9748 3.41747 45.1753 3.65913 45.2644 3.95178C45.3546 4.24861 45.3233 4.57404 45.178 4.84502C45.0293 5.12273 44.8493 5.43487 44.6118 5.82695C44.5149 5.98684 44.383 6.11341 44.2303 6.19827C44.2034 6.41042 44.1306 6.61475 44.0155 6.79558C43.8969 6.9817 43.7688 7.17564 43.6237 7.38835C43.4752 7.60579 43.2657 7.75329 43.0286 7.81284C42.9955 8.13408 42.8742 8.44166 42.6733 8.69935C42.4057 9.04244 42.1055 9.40647 41.9006 9.65141C41.8068 9.76414 41.692 9.853 41.565 9.91383C41.5226 10.0748 41.4455 10.2265 41.3356 10.3542C40.9427 10.8102 40.4128 11.4009 40.1168 11.6282C40.1161 11.6287 40.1154 11.6293 40.1145 11.6298C39.985 11.7285 39.837 11.787 39.6828 11.8012C39.5489 12.074 39.3645 12.3177 39.1379 12.5149C38.8419 12.7724 38.2262 13.2825 37.4277 13.8051C37.2373 13.9299 37.0208 13.996 36.8017 13.996C36.6446 13.996 36.4892 13.9614 36.3448 13.8971C36.1672 14.3443 35.8331 14.7066 35.3988 14.8945C34.9411 15.0923 34.3108 15.3436 33.5253 15.6413C33.421 15.6808 33.3131 15.7011 33.2048 15.7011C32.9879 15.7011 32.7837 15.6222 32.6179 15.4767C32.1906 15.9382 31.649 16.2862 31.0728 16.4657C30.384 16.6808 29.6496 16.8966 29.1546 17.0397C29.0089 17.0822 28.8586 17.1037 28.7085 17.1037C28.3178 17.1037 27.9419 16.9594 27.6334 16.6943C27.4547 16.9654 27.2262 17.1969 26.9486 17.3868C26.4544 17.7252 25.9196 17.8483 25.5656 17.9297C25.5209 17.9399 25.4788 17.9497 25.4399 17.9592C25.3945 17.9703 25.3395 17.9849 25.2811 18.0004C24.9696 18.0829 24.5429 18.1959 24.0874 18.1959C23.9572 18.1959 23.8321 18.1865 23.7124 18.1674C23.5998 18.3045 23.4467 18.403 23.2702 18.4438C23.027 18.5001 22.4844 18.6091 22.3273 18.635C22.2795 18.6428 22.2316 18.6468 22.1844 18.6468C22.1815 18.6468 22.1786 18.6468 22.1757 18.6468C21.6366 20.1552 20.9488 21.744 20.0773 23.2513C19.7235 23.8628 19.1678 24.2982 18.5125 24.4776C17.5794 24.7329 16.0703 25.0769 14.1799 25.2663C14.1401 25.2703 14.1 25.2723 14.0605 25.2723V25.2716ZM8.58907 18.6239C8.7203 18.6414 8.8433 18.6496 8.96802 18.6496C9.15697 18.6496 9.36426 18.6303 9.61866 18.5891C9.81002 18.5414 10.0224 18.4669 10.2503 18.3671C10.2508 18.3669 10.2515 18.3666 10.252 18.3664C10.3536 18.3223 10.4608 18.2999 10.5705 18.2999C10.5927 18.2999 10.6148 18.3008 10.6369 18.3027C9.94827 16.6524 9.55373 15.1158 9.37471 14.3178C9.37351 14.3123 9.37231 14.307 9.37129 14.3016C9.30259 14.0076 9.2082 13.5453 9.18199 13.4052C9.09804 13.4651 9.00382 13.5096 8.9024 13.5354C8.14212 13.7295 7.59306 14.1655 7.25523 14.5148C7.26106 14.5203 7.26671 14.5259 7.27236 14.5316C7.62698 14.8759 7.71504 15.4315 7.48582 15.8819C7.25763 16.3317 6.96229 16.7979 6.7132 17.1658C7.07929 17.3093 7.3928 17.3606 7.61567 17.3759C7.92215 17.3974 8.20293 17.5591 8.38692 17.8195C8.55053 18.0512 8.62214 18.3394 8.58924 18.6239H8.58907ZM17.9962 18.1328C18.0087 18.2382 18.0176 18.3433 18.0205 18.4465C18.0257 18.4445 18.0308 18.4423 18.0361 18.4403C18.1221 18.4054 18.2518 18.3038 18.4125 18.1098C18.2605 18.124 18.1219 18.1324 17.9962 18.1326V18.1328ZM13.9174 12.7955C13.9654 12.8048 14.0132 12.8157 14.0611 12.8279C14.1211 12.8432 14.1799 12.8623 14.2371 12.8847C14.2388 12.7973 14.2412 12.7134 14.2439 12.6333C14.2446 12.6165 14.2456 12.5996 14.2474 12.583C14.2477 12.5726 14.2482 12.5624 14.2486 12.552C14.2386 12.5591 14.2287 12.5664 14.2189 12.5735C14.1136 12.6496 14.0137 12.7218 13.9174 12.7955ZM23.8172 12.2851C23.8135 12.3182 23.8095 12.3519 23.8051 12.386C23.826 12.3849 23.8465 12.3839 23.8671 12.383C23.8503 12.3508 23.8337 12.3182 23.8171 12.2851H23.8172ZM29.7964 11.9786C29.8005 12.0017 29.8049 12.0192 29.8089 12.0323C29.8205 12.0321 29.8312 12.0308 29.8383 12.0297C29.8392 12.0294 29.8395 12.0294 29.8397 12.0294C29.8399 12.0294 29.8397 12.0294 29.8402 12.0294C29.8402 12.0294 29.8421 12.0292 29.8428 12.029C29.8443 12.0287 29.8469 12.0281 29.8509 12.027C29.9149 12.0103 30.0119 11.9849 30.0749 11.7223C30.1304 11.4918 30.1344 11.1713 30.0866 10.7947C29.992 10.7326 29.9036 10.6663 29.8214 10.5971C29.8181 10.678 29.8149 10.7559 29.8118 10.8306C29.7916 11.3175 29.7755 11.7052 29.7964 11.9784V11.9786ZM36.149 9.52812C36.1622 9.60443 36.1754 9.682 36.1886 9.76122C36.204 9.68255 36.2192 9.60406 36.2341 9.52594C36.206 9.52703 36.1776 9.52776 36.149 9.5283V9.52812Z" fill="white"/>
<path d="M34.7821 1.45687C35.1616 1.45687 35.5165 1.72366 35.6676 2.10845C35.6697 2.11301 35.6719 2.11792 35.6734 2.12302C35.6734 2.12302 35.742 1.82892 35.9621 1.68669C36.058 1.62423 36.229 1.5838 36.4872 1.5838C36.6532 1.5838 36.8553 1.60055 37.0965 1.63916C37.6751 1.73203 38.0686 2.09789 38.263 2.63766L38.2625 2.63821V2.6393C38.4585 3.18253 38.6981 3.98399 38.8837 5.03676C39.203 6.84965 39.3167 9.31048 39.2457 10.7985C39.2241 11.2505 39.0264 11.6699 38.704 11.9505C38.3351 12.2714 37.7503 12.7379 37.0684 13.1843C36.9814 13.2413 36.8903 13.267 36.8019 13.267C36.4858 13.267 36.2073 12.9394 36.2929 12.5516C36.5711 11.2909 37.0147 9.36111 37.1681 8.03663C37.3701 6.29021 37.3117 5.757 37.1106 5.757C37.0789 5.757 37.0436 5.77029 37.0052 5.79415C36.7465 5.9555 37.0864 6.84765 36.923 8.34622C36.9009 8.54836 36.765 8.71298 36.5836 8.75214C36.4617 8.77891 36.301 8.80003 36.0986 8.80003C36.0388 8.80003 35.9753 8.79821 35.9081 8.79402C35.6842 8.78 35.505 8.58114 35.4924 8.3342C35.4656 7.82921 35.4997 7.02957 35.2664 7.02957C35.2414 7.02957 35.2135 7.03868 35.1819 7.05834C34.7862 7.30547 35.8201 9.90616 35.8021 13.1517C35.799 13.6234 35.5386 14.0468 35.1403 14.2192C34.6245 14.4421 33.9511 14.7058 33.2951 14.9546C33.2639 14.9664 33.2336 14.9719 33.2047 14.9719C33.0407 14.9719 32.9218 14.7947 32.9388 14.5894C33.0325 13.4901 33.2881 11.6806 33.3114 9.03495C33.3325 6.62729 33.2655 4.87104 32.9826 3.00898C32.8603 2.20479 33.2614 1.53609 33.8841 1.48182C34.1664 1.45723 34.4778 1.46324 34.765 1.45723C34.7705 1.45723 34.7759 1.45723 34.7814 1.45723M38.526 1.91724C38.5349 1.91724 38.5438 1.91778 38.5527 1.91888C38.5527 1.91888 38.5654 1.92106 38.588 1.92398C38.5923 1.92452 40.0832 2.19495 40.4842 2.5009C41.0427 2.92703 40.5312 4.74283 40.4721 5.54757C40.5163 5.50059 40.6276 5.37348 40.6754 5.33196C40.8169 5.20994 40.9831 5.15367 41.1471 5.15367C41.4546 5.15367 41.7545 5.35199 41.87 5.68871L41.871 5.68761L41.872 5.68597C42.0833 6.30259 42.2472 6.99752 42.3336 7.44223C42.3879 7.72231 42.3183 8.01241 42.1449 8.23458C41.9 8.54872 41.6144 8.89655 41.3877 9.16771C41.3245 9.24383 41.2396 9.27879 41.1556 9.27879C41.0194 9.27879 40.886 9.18647 40.8514 9.02712C40.8113 8.84337 40.776 8.63122 40.7602 8.41214C40.6655 7.10333 40.7613 6.94362 40.5917 6.90282C40.581 6.90027 40.5709 6.89918 40.5613 6.89918C40.3078 6.89918 40.3868 7.74872 40.5569 8.50247C40.5932 8.66381 40.6317 8.80549 40.6691 8.93133C40.7445 9.14531 40.8229 9.3256 40.8831 9.45453C40.9463 9.58947 40.9247 9.75191 40.8293 9.86282C40.4561 10.2957 39.952 10.8559 39.7149 11.0378C39.6835 11.0616 39.6465 11.0762 39.6088 11.0762C39.5998 11.0762 39.5907 11.0753 39.5816 11.0737C39.4968 11.0569 39.4389 10.9768 39.4425 10.8877L39.462 10.2868C39.4721 9.35036 39.4298 7.83595 39.2703 6.19624C39.2371 5.85807 39.0048 3.9818 38.4395 2.51219C38.4283 2.48651 38.4174 2.46065 38.4062 2.43607C38.3989 2.41931 38.393 2.40183 38.3882 2.38398C38.3692 2.33755 38.3499 2.29111 38.3303 2.24558C38.3067 2.19077 38.2992 2.12794 38.3182 2.07148C38.3507 1.97606 38.4355 1.91742 38.526 1.91742M31.5215 1.95038C32.7387 1.95038 33.1187 3.11315 32.9424 4.95863L32.9419 4.95973C32.8117 6.31789 32.3717 7.39087 32.1805 7.80481C32.1252 7.92354 32.1189 8.0614 32.1653 8.1845C32.9167 10.1811 32.9989 11.738 32.8971 13.2082C32.8106 14.4576 31.9124 15.445 30.8798 15.767C30.2517 15.9631 29.5589 16.168 28.9746 16.3371C28.8852 16.3632 28.7961 16.3756 28.7084 16.3756C28.1633 16.3756 27.6822 15.8957 27.6236 15.2277C27.4903 13.6944 27.4645 12.0086 27.1984 10.0883C26.8738 7.74162 25.1372 6.52422 24.2931 5.31502C24.0797 5.00871 24.1873 4.55563 24.4955 4.39373C25.3095 3.96523 26.4787 3.50104 27.3728 3.22277C27.4383 3.20238 27.5046 3.19218 27.5697 3.19236C27.7855 3.19236 27.9896 3.30363 28.1143 3.52089C29.002 5.0699 29.1896 8.81333 29.1548 10.0393C29.129 10.9404 29.0747 11.6069 29.1158 12.0734C29.2036 12.6624 29.568 12.7622 29.8048 12.7622C29.9259 12.7622 30.0136 12.7361 30.0136 12.7361C30.8513 12.5176 30.8587 11.4206 30.7634 10.6847C30.7419 10.5457 30.7198 10.4215 30.6997 10.3179C30.1327 10.0529 29.8019 9.57763 29.6217 9.21797C29.4973 8.96812 29.5173 8.6629 29.6801 8.44C30.2558 7.65256 30.2629 7.00408 30.2629 7.00408C29.9684 6.59524 28.9403 5.33068 28.8513 4.14333C28.7438 2.71742 29.3613 2.4184 30.8998 2.03525C31.1277 1.97843 31.3346 1.95111 31.5217 1.95111M31.1791 5.26057C31.1825 5.26057 31.1861 5.26057 31.1895 5.26002C31.3259 5.24709 31.4213 4.98613 31.4012 4.67873C31.3817 4.37916 31.2603 4.14388 31.1278 4.14388C31.1244 4.14388 31.1208 4.14388 31.1174 4.14443C30.9808 4.15736 30.8861 4.41777 30.9056 4.72572C30.9252 5.02529 31.0466 5.26057 31.1791 5.26057ZM41.8578 2.94433C41.9481 2.94433 42.0473 2.95854 42.1542 2.9884C43.2544 3.2958 43.9677 3.72703 44.415 3.94392L44.4166 3.94502H44.4171C44.6105 4.03862 44.6874 4.28884 44.582 4.48552C44.4171 4.79346 44.2228 5.12399 44.035 5.43375C43.9703 5.54047 43.8654 5.5931 43.7608 5.5931C43.6491 5.5931 43.5375 5.53319 43.475 5.41518C43.4233 5.31884 43.3697 5.21013 43.3232 5.08411C43.1641 4.65342 42.9751 4.46421 42.8735 4.46421C42.7719 4.46421 42.7564 4.66781 42.9688 5.01691C43.0462 5.14457 43.196 5.38477 43.3244 5.49512C43.5778 5.71293 43.6306 6.10118 43.4478 6.38782C43.3107 6.60289 43.1807 6.7972 43.0685 6.96183C42.9976 7.06563 42.8922 7.1148 42.7874 7.1148C42.6505 7.1148 42.5148 7.03085 42.459 6.87441C41.8025 5.35618 41.3545 4.29157 41.2788 3.95048C41.2677 3.90732 41.2587 3.86471 41.2519 3.82282C41.2519 3.82282 41.2519 3.82282 41.2522 3.82282C41.2615 3.82282 41.4463 3.89129 41.4463 3.89129L41.2503 3.81681C41.17 3.30217 41.4044 2.94433 41.8582 2.94433M13.2349 4.42961C13.539 4.42961 13.8316 4.59369 13.9973 4.88288C14.326 5.45579 14.7786 6.46995 15.1206 8.10092C15.7237 10.9808 14.492 11.4483 13.4883 12.2268C12.4829 13.0058 11.8385 12.8804 12.053 14.3068C12.053 14.3068 12.5474 13.4808 13.4758 13.4808C13.6085 13.4808 13.7501 13.4977 13.9003 13.5363C14.9672 13.8097 15.0342 16.0425 14.6705 17.4444V17.4449H14.671C14.3207 18.7943 13.8515 18.9717 13.0393 18.9717C12.9879 18.9717 12.9351 18.971 12.881 18.9699C12.6482 18.9699 12.4532 18.9653 12.2913 18.9593C11.9088 18.9442 11.5653 18.7051 11.4036 18.336C10.6613 16.6434 10.2397 15.0345 10.0411 14.1491V14.1475C9.96267 13.8153 9.8556 13.2777 9.85149 13.2509C9.85046 13.2469 9.85046 13.2453 9.85046 13.2453C9.84361 13.1972 9.8383 13.1484 9.8383 13.0992C9.83522 12.6742 10.0543 12.263 10.4226 12.0177C11.1197 11.5535 11.1428 11.4907 11.5487 11.1984C12.2115 10.7207 11.8954 10.3556 11.682 10.1702C10.4089 9.06136 9.60651 8.30979 8.5992 7.46518C8.42685 7.32131 8.1334 7.02447 8.53752 6.7646C9.10028 6.40275 9.55872 6.15527 10.0888 5.89103C10.9818 5.40316 12.0883 4.82861 12.9146 4.49316C13.0194 4.45073 13.128 4.43034 13.2351 4.43034M13.0273 16.9492C13.1851 16.9492 13.3259 16.7704 13.3446 16.5442C13.3631 16.3146 13.2491 16.1235 13.0884 16.1181C13.086 16.1181 13.0836 16.1181 13.0811 16.1181C12.9233 16.1181 12.7825 16.2969 12.7638 16.5231C12.7453 16.7527 12.8597 16.9437 13.0199 16.9492C13.0223 16.9492 13.0247 16.9492 13.0273 16.9492ZM14.7396 5.13164C14.7639 5.13164 14.7892 5.13783 14.8141 5.15185V5.15076L16.4621 6.05966C16.5687 6.11794 16.5771 6.27419 16.4801 6.34976C16.1772 6.58504 15.7666 7.46481 15.882 9.21597C15.8884 9.31394 15.8157 9.39808 15.7229 9.39808C15.6412 9.39808 15.5726 9.33361 15.5643 9.24747C15.5132 8.74576 15.2744 6.84601 14.5974 5.37639C14.5419 5.25602 14.6308 5.13164 14.7394 5.13164M22.953 5.23471C23.028 5.23471 23.0969 5.24254 23.1577 5.25948C24.6272 5.66612 24.351 7.57644 24.252 8.35204C24.153 9.12764 23.5449 10.7692 22.8599 11.0279L22.8589 11.0285H22.8599C22.8599 11.0285 22.8623 11.0281 22.8666 11.0281C22.9269 11.0281 23.3638 11.0842 23.0534 12.7454C22.6871 14.7027 21.7067 19.042 19.4936 22.8699C19.2345 23.3181 18.8209 23.6411 18.3419 23.7721C17.5027 24.0017 16.0052 24.3517 14.1158 24.5411C14.0973 24.5429 14.0788 24.5439 14.0606 24.5439C13.7007 24.5439 13.4232 24.1878 13.5015 23.8047C13.7223 22.7215 14.1532 20.7955 14.6359 19.6548C14.7726 19.3325 15.0752 19.1334 15.3979 19.1334C15.458 19.1334 15.519 19.1403 15.5797 19.1547C15.9607 19.2445 16.4842 19.3368 17.0278 19.3368C17.4531 19.3368 17.8907 19.2802 18.2811 19.1216C19.5694 18.5973 20.9741 14.5443 21.1269 12.1058C21.1401 11.8913 20.9995 11.7021 20.8003 11.6657C20.7617 11.659 20.719 11.65 20.6726 11.6411C20.4982 11.6052 20.3687 11.384 20.3802 11.1959C20.3913 11.0205 20.415 10.797 20.4655 10.5765C20.5171 10.3498 20.7062 10.1866 20.926 10.1844C21.2088 10.1806 21.619 10.1088 21.8992 9.77231C22.3486 9.23236 22.5836 7.87492 22.1447 7.68334C22.0919 7.6604 22.0457 7.64983 22.0051 7.64983C21.7332 7.64983 21.7267 8.12186 21.867 8.46732C21.8929 8.53069 21.915 8.58715 21.9333 8.63704C22.0097 8.84319 21.9475 9.0772 21.781 9.21105C21.5318 9.41155 21.1093 9.68872 20.557 9.81984C20.5291 9.82639 20.5015 9.82967 20.4744 9.82967C20.3149 9.82967 20.1729 9.72022 20.1076 9.5556C19.9749 9.22125 19.7857 8.62594 19.8084 7.64983C19.8246 6.95418 19.9843 6.55882 20.4384 6.27437C21.0701 5.87846 22.2723 5.23489 22.953 5.23489M24.6296 6.32791C24.6622 6.32791 24.6954 6.34066 24.7221 6.37016C25.1504 6.84164 25.6667 7.34808 25.9898 7.94394C26.0388 8.03518 25.9835 8.13206 25.8807 8.13989C25.2321 8.19033 24.9434 8.37681 24.7147 8.44401C24.7026 8.44765 24.6904 8.44947 24.6786 8.44947C24.6053 8.44947 24.5434 8.38391 24.5556 8.30579C24.6536 7.69427 24.6114 6.91685 24.5071 6.48452L24.5066 6.48343C24.4854 6.39492 24.5554 6.32791 24.6296 6.32791ZM17.0614 6.44737C17.2131 6.44737 17.3838 6.49344 17.5707 6.59761C18.0243 6.85019 18.5639 7.18109 19.0034 7.58154C19.4065 7.94849 19.6778 8.45184 19.7806 9.00527C19.925 9.78761 20.1421 11.1906 20.1573 12.6332C20.1799 14.8091 20.3845 17.1191 19.0429 17.3012C18.5934 17.3622 18.2468 17.4054 17.9918 17.4054C17.4854 17.4054 17.3397 17.2349 17.4658 16.6941C17.6555 15.881 18.2045 14.8863 18.3279 13.2C18.4485 11.551 18.2915 11.1911 18.0435 11.1911C18.0378 11.1911 18.0322 11.1913 18.0265 11.1917C17.7684 11.2073 17.8532 11.9028 17.958 12.5369C18.0628 13.1708 18.4132 13.7516 17.6239 14.1318C17.4297 14.2254 17.2863 14.2638 17.1801 14.2638C16.8318 14.2638 16.8846 13.8508 16.8667 13.6161C16.85 13.3935 16.7737 13.2346 16.6723 13.2346C16.6338 13.2346 16.5918 13.2575 16.5479 13.3087C16.3888 13.4946 16.5258 13.8889 16.6165 14.4053C16.7071 14.9216 17.0533 16.5682 17.2303 17.6609C17.3579 18.4536 17.5145 19.1276 16.754 19.1276C16.7365 19.1276 16.7187 19.1272 16.7002 19.1265C15.7993 19.0912 15.2586 19.0912 15.1642 18.2573C15.0551 17.2874 14.8713 14.2524 14.9287 12.6624L14.9292 12.6618H14.9302C14.9854 11.1321 15.2151 9.67106 16.1339 9.67106C16.17 9.67106 16.2075 9.67342 16.2459 9.67798C16.2459 9.67798 16.0926 8.38537 16.2802 7.27269C16.3583 6.80922 16.6362 6.44755 17.0612 6.44773M32.8987 6.82088C32.9395 6.82088 32.9802 6.85256 32.9852 6.91102C33.0321 7.50287 33.0859 8.4522 33.0438 9.32195C33.0409 9.38241 32.9991 9.41538 32.9571 9.41538C32.9225 9.41538 32.8881 9.39298 32.8752 9.34545C32.7872 9.01729 32.6529 8.56693 32.4726 8.09545C32.4415 8.01369 32.4437 7.92081 32.4774 7.84068V7.84014C32.5581 7.64965 32.7102 7.27123 32.8178 6.88971C32.831 6.84291 32.8649 6.82088 32.8989 6.82088M26.1786 8.40777C26.4549 8.40777 26.6483 8.70606 26.6211 8.9836L26.6216 8.98414H26.6221C26.5457 9.76593 25.9066 10.4508 26.8077 12.2537C27.3209 13.2797 27.538 14.2504 27.3958 15.3474C27.1924 16.9161 25.8884 17.1031 25.2871 17.2499C25.0049 17.3187 24.5421 17.468 24.0877 17.468C23.5176 17.468 22.9608 17.2326 22.7921 16.3067C22.5951 15.227 22.7931 14.4771 23.065 13.6578C23.1657 13.3547 23.4839 13.1353 23.7811 13.118C23.89 13.1116 24.011 13.1071 24.1337 13.1071C24.4261 13.1071 24.7273 13.1331 24.8945 13.2244C25.297 13.4438 25.0457 14.1362 24.9724 14.4379C24.9429 14.5607 25.0013 14.6951 25.1067 14.751C25.1387 14.7672 25.1725 14.7748 25.2059 14.7748C25.3008 14.7748 25.3928 14.7136 25.4329 14.6138C25.8122 13.6713 24.9219 13.0457 24.3396 11.7711C23.9428 10.9025 23.9939 9.98173 24.1083 9.49787C24.1794 9.19539 24.3891 8.93224 24.661 8.82862C25.2438 8.60681 25.7832 8.44492 26.1409 8.40959C26.1536 8.40832 26.1661 8.40777 26.1784 8.40777M8.0044 12.2262C8.43336 12.2262 8.73642 12.3011 8.87946 12.346C8.93051 12.3612 8.9569 12.4189 8.93908 12.4721C8.91064 12.5555 8.89008 12.6294 8.87638 12.6855C8.85908 12.7549 8.80837 12.8104 8.74258 12.8272C7.60233 13.1184 6.86534 13.8548 6.51227 14.2922C6.37796 14.4592 6.40262 14.7118 6.56554 14.8473C6.65617 14.9234 6.73994 15.0008 6.80949 15.0686C6.93181 15.1873 6.9623 15.38 6.88333 15.5351C6.56554 16.1612 6.10197 16.831 5.84791 17.1821C5.75147 17.316 5.79001 17.5103 5.93014 17.5893C6.60306 17.9679 7.19734 18.0772 7.57149 18.1029C7.79385 18.1185 7.95129 18.3409 7.90332 18.5722C7.88602 18.655 7.86803 18.7368 7.85124 18.8118C7.80328 19.0247 7.92868 19.2363 8.13048 19.28C8.43354 19.3463 8.69599 19.3782 8.96837 19.3782C9.20907 19.3782 9.45747 19.3532 9.74802 19.3051C9.93937 19.2593 10.1917 19.1808 10.5114 19.0407C10.5306 19.0323 10.5508 19.0283 10.5707 19.0283C10.6107 19.0283 10.6503 19.0447 10.6805 19.0755C10.729 19.1254 10.799 19.1926 10.8792 19.2558L10.8787 19.2547C10.9582 19.3179 10.9671 19.4395 10.896 19.5124C10.6914 19.7207 10.2837 20.097 9.81106 20.3155C9.05026 20.7327 8.36364 20.8627 8.36364 20.8627C7.6282 21.0446 6.83793 21.0953 6.18729 21.0953C5.37629 21.0953 4.78235 21.0168 4.78235 21.0168C4.80976 20.3151 4.92625 19.7012 4.92625 19.7012C4.8603 19.7056 4.79229 19.7078 4.72222 19.7078C3.39129 19.7078 1.37083 18.9542 1.37083 18.9542C2.95153 17.6112 3.72501 16.0594 3.72604 16.0576C3.16482 15.7395 2.66321 15.2008 2.66321 15.2008L4.40563 13.771C5.90924 12.4988 7.18621 12.2264 8.0044 12.2264M22.5129 16.4506C22.525 16.4506 22.5374 16.4522 22.5497 16.4559C22.603 16.4721 22.6383 16.5209 22.6492 16.5779C22.734 17.0231 22.9442 17.3329 23.1635 17.4733C23.2663 17.5394 23.242 17.7046 23.1244 17.7315C22.8901 17.7858 22.3583 17.8923 22.2225 17.9147C22.2091 17.9169 22.1964 17.918 22.1846 17.918C22.076 17.918 22.0315 17.8297 22.0633 17.7334L22.0639 17.7317L22.3804 16.5568C22.3979 16.4925 22.4527 16.4506 22.5127 16.4506M34.7821 0C34.7681 0 34.7542 0 34.7401 0.000364217C34.7394 0.000364217 34.7388 0.000364217 34.7381 0.000364217C34.6636 0.00200319 34.5851 0.00273163 34.5018 0.00346006C34.2779 0.00546326 34.024 0.00764856 33.7726 0.0296837C33.2674 0.073754 32.8036 0.286275 32.4317 0.638108C32.1704 0.548511 31.8688 0.492786 31.5222 0.492786C31.2287 0.492786 30.9144 0.534124 30.5877 0.615345C29.7577 0.822038 28.9636 1.05168 28.3716 1.58635C28.2895 1.66047 28.2128 1.73895 28.1415 1.82163C27.9591 1.76427 27.767 1.7344 27.57 1.7344C27.3739 1.7344 27.178 1.76445 26.9879 1.82363C25.9484 2.14724 24.732 2.64294 23.8888 3.08656C23.5836 3.24681 23.328 3.48865 23.1424 3.78494C23.0802 3.77966 23.017 3.77693 22.9528 3.77693C22.4579 3.77693 21.865 3.93646 21.14 4.2648C20.5037 4.5529 19.9504 4.88779 19.7421 5.01837C19.4238 5.21777 19.1616 5.46544 18.959 5.75809C18.7315 5.60913 18.482 5.45925 18.2062 5.30573C17.9518 5.16405 17.6938 5.06954 17.4355 5.0231C17.3327 4.92057 17.2164 4.83316 17.0901 4.76396L15.4448 3.85651C15.3991 3.8312 15.3522 3.80898 15.3047 3.7895C15.1552 3.7263 14.9967 3.68806 14.8365 3.67714C14.6866 3.51761 14.5156 3.38066 14.3287 3.2714C13.9947 3.076 13.6164 2.97256 13.2349 2.97256C12.9579 2.97256 12.686 3.02573 12.4267 3.13081C12.4261 3.13081 12.4258 3.13117 12.4253 3.13136C11.6938 3.42838 10.7045 3.91643 9.48437 4.5824C9.01103 4.81896 8.48236 5.09685 7.82829 5.51734C7.60541 5.66066 7.42091 5.83694 7.27992 6.04127C7.0937 6.31097 6.98526 6.62675 6.96659 6.95454C6.94911 7.2583 7.00034 7.71794 7.3433 8.18232C7.45483 8.33329 7.58862 8.47333 7.75257 8.61009C8.33143 9.09541 8.84075 9.54923 9.4304 10.0746C9.60806 10.2329 9.79616 10.4006 9.99642 10.578C9.91488 10.6348 9.81706 10.7014 9.69525 10.7825C9.59538 10.8489 9.49996 10.9223 9.40968 11.0017C9.36137 10.9806 9.31186 10.9622 9.26149 10.9467C9.00007 10.8653 8.57161 10.7692 8.00474 10.7692C6.97875 10.7692 5.37561 11.0911 3.56072 12.6238L1.82601 14.0471C1.51508 14.3023 1.32218 14.6869 1.29597 15.1034C1.26976 15.5198 1.41315 15.9283 1.6893 16.2251C1.70729 16.2444 1.76434 16.3049 1.85222 16.391C1.5257 16.823 1.0796 17.3362 0.515125 17.8157C0.125903 18.1464 -0.0639118 18.6758 0.0196887 19.1979C0.103289 19.72 0.446771 20.153 0.917024 20.3284C0.939809 20.3368 1.48167 20.5382 2.19759 20.7391C2.63203 20.8609 3.03753 20.9569 3.41185 21.0266C3.4163 21.754 3.9275 22.3715 4.61326 22.4622C4.64102 22.4658 5.3016 22.5518 6.18729 22.5518C7.07297 22.5518 7.92765 22.4631 8.64631 22.2883C8.84263 22.2473 9.58116 22.0734 10.4011 21.6309C11.0161 21.3369 11.5238 20.8904 11.8442 20.5641C11.8451 20.5633 11.8457 20.5624 11.8466 20.5617C11.8988 20.5082 11.9472 20.4512 11.9912 20.3912C12.0736 20.4038 12.157 20.4116 12.2408 20.4149C12.2413 20.4149 12.2418 20.4149 12.2425 20.4149C12.4399 20.4224 12.6502 20.4264 12.8676 20.4266C12.8813 20.4269 12.8947 20.4271 12.9077 20.4273C12.6052 21.4433 12.3477 22.5846 12.162 23.4955C12.0368 24.1086 12.1776 24.7411 12.5485 25.23C12.9197 25.7194 13.4708 26 14.0606 26C14.1216 26 14.1833 25.9969 14.2441 25.9909C16.1796 25.7969 17.7266 25.4442 18.6835 25.1823C19.0928 25.0703 19.4727 24.8786 19.8128 24.6123C20.1541 24.3452 20.4395 24.0156 20.6611 23.6324C21.4106 22.3362 22.0832 20.888 22.6698 19.3104C22.9079 19.2642 23.2358 19.1968 23.4165 19.1549C23.6045 19.1114 23.7797 19.0318 23.9358 18.9202C23.9858 18.9225 24.0365 18.9236 24.0877 18.9236C24.6274 18.9236 25.1208 18.7931 25.4473 18.7066C25.5024 18.692 25.5543 18.6781 25.5932 18.6687C25.6268 18.6605 25.6678 18.651 25.7111 18.641C26.089 18.5541 26.7215 18.4084 27.3202 17.9987C27.4837 17.8869 27.6344 17.7623 27.772 17.6263C28.0663 17.7609 28.3837 17.8315 28.7092 17.8315C28.9198 17.8315 29.1305 17.8015 29.3354 17.7421C29.8331 17.5981 30.5723 17.381 31.2668 17.1641C31.6495 17.0448 32.0171 16.866 32.3594 16.6325C32.4872 16.5453 32.6104 16.4513 32.7282 16.351C32.8817 16.4022 33.0426 16.4289 33.2055 16.4289C33.3926 16.4289 33.5779 16.3945 33.7566 16.3268C34.5512 16.0256 35.1909 15.7706 35.6572 15.569C35.6575 15.569 35.6577 15.5688 35.658 15.5686C36.0681 15.3911 36.4209 15.0992 36.6854 14.7198C36.7244 14.7226 36.7635 14.7238 36.8024 14.7238C37.1484 14.7238 37.4894 14.6204 37.7881 14.4246C38.6202 13.8799 39.2633 13.3471 39.5725 13.0781C39.7848 12.8935 39.9689 12.678 40.1209 12.44C40.2595 12.3881 40.3917 12.3149 40.5142 12.2215C40.5156 12.2204 40.517 12.2193 40.5183 12.2184C40.6209 12.1395 40.9333 11.8999 41.841 10.8464C41.8414 10.846 41.8416 10.8457 41.8419 10.8455C41.9539 10.7153 42.0464 10.5703 42.1179 10.4144C42.2258 10.3345 42.3255 10.2405 42.4144 10.134C42.6226 9.88485 42.9277 9.51481 43.2013 9.16425C43.3897 8.92241 43.5336 8.64032 43.6213 8.34185C43.8394 8.21291 44.0308 8.03281 44.1784 7.81683C44.1786 7.81646 44.1789 7.8161 44.1791 7.81573C44.3283 7.59684 44.4606 7.39652 44.5834 7.20385C44.6953 7.02848 44.7808 6.83836 44.8387 6.63986C44.9726 6.52258 45.0908 6.38236 45.188 6.2221C45.4328 5.818 45.6188 5.49512 45.774 5.20521C46.014 4.75759 46.0661 4.21891 45.9166 3.72776C45.7694 3.24426 45.4386 2.84508 45.0071 2.62855C44.9995 2.62473 44.9918 2.62091 44.9843 2.61726C44.9144 2.58339 44.828 2.53878 44.7282 2.48706C44.2482 2.23866 43.523 1.86333 42.5035 1.57852C42.2856 1.51751 42.0684 1.48655 41.8587 1.48655C41.7382 1.48655 41.6202 1.49657 41.5051 1.5166C41.429 1.43593 41.3537 1.37018 41.2844 1.31737C40.9538 1.06515 40.4806 0.874667 39.7022 0.679811C39.2789 0.574006 38.8426 0.489326 38.7576 0.478217C38.7562 0.478217 38.755 0.477853 38.7536 0.477671C38.7418 0.47585 38.7298 0.474029 38.7178 0.472572C38.6546 0.464377 38.5904 0.46037 38.5268 0.46037C38.4134 0.46037 38.3015 0.472936 38.1924 0.497885C37.9211 0.351834 37.622 0.250581 37.3016 0.199045C37.3013 0.199045 37.3009 0.199045 37.3006 0.199045C37.0035 0.151514 36.7299 0.127476 36.4873 0.127476C36.2066 0.127476 35.957 0.159345 35.7343 0.223994C35.435 0.0764856 35.1119 0 34.7821 0Z" fill="white"/>
<path d="M14.9369 12.6713C14.8795 14.2613 15.0634 17.2961 15.1725 18.2661C15.2669 19.0999 15.8074 19.0999 16.7085 19.1353C17.5299 19.1671 17.3692 18.4806 17.2385 17.6697C17.0614 16.577 16.7153 14.9304 16.6247 14.4141C16.5341 13.8978 16.397 13.5034 16.5562 13.3174C16.7153 13.1315 16.8517 13.318 16.875 13.6248C16.8981 13.9311 16.8012 14.541 17.6322 14.1406C18.4214 13.7603 18.0711 13.1796 17.9663 12.5457C17.8614 11.9117 17.7766 11.2161 18.0348 11.2004C18.2924 11.1842 18.4595 11.5224 18.3361 13.2087C18.2128 14.895 17.6639 15.8897 17.4741 16.7028C17.2844 17.5161 17.7091 17.4919 19.051 17.31C20.3926 17.1279 20.188 14.8177 20.1654 12.642C20.1501 11.1993 19.9331 9.79637 19.7887 9.01403C19.6859 8.46061 19.4145 7.95726 19.0114 7.59031C18.572 7.18985 18.0324 6.85896 17.5787 6.60638C16.8685 6.21102 16.3943 6.65227 16.2884 7.28127C16.1008 8.39414 16.2542 9.68656 16.2542 9.68656C15.242 9.56455 14.9959 11.0806 14.9385 12.6704H14.9374L14.9369 12.671V12.6713Z" fill="#3396FF"/>
<path d="M22.8684 11.0371C23.5533 10.7783 24.1614 9.13695 24.2605 8.36117C24.3595 7.58557 24.6356 5.67525 23.1661 5.2686C22.5528 5.09887 21.148 5.8437 20.4469 6.28349C19.9927 6.56794 19.833 6.9633 19.8168 7.65896C19.7942 8.63506 19.9833 9.23037 20.1161 9.56472C20.1925 9.75739 20.3737 9.87449 20.5654 9.82914C21.1175 9.69802 21.5402 9.42086 21.7894 9.22035C21.956 9.0865 22.0181 8.85231 21.9417 8.64635C21.9232 8.59645 21.9011 8.54 21.8754 8.47662C21.7142 8.07963 21.7468 7.51564 22.1531 7.69246C22.592 7.88404 22.357 9.24148 21.9076 9.78143C21.6274 10.118 21.2174 10.1897 20.9344 10.1935C20.7146 10.1957 20.5255 10.3589 20.4739 10.5856C20.4234 10.8062 20.3996 11.0298 20.3886 11.205C20.377 11.3931 20.5066 11.6144 20.681 11.6502C20.7275 11.6592 20.7701 11.6681 20.8087 11.6748C21.0079 11.7112 21.1486 11.9004 21.1354 12.115C20.9826 14.5534 19.5778 18.6064 18.2895 19.1307C17.4002 19.492 16.2673 19.3239 15.5881 19.1637C15.2025 19.0724 14.8067 19.2813 14.6445 19.6639C14.1619 20.8046 13.7309 22.7306 13.5101 23.8138C13.4278 24.2164 13.7383 24.5889 14.1244 24.5503C16.0138 24.3609 17.5112 24.0108 18.3505 23.7812C18.8295 23.6501 19.243 23.327 19.5022 22.879C21.7153 19.0511 22.6959 14.712 23.0619 12.7545C23.395 10.973 22.8685 11.0374 22.8685 11.0374H22.8675L22.8685 11.0369L22.8684 11.0371Z" fill="#3396FF"/>
<path d="M26.6292 8.99234C26.6576 8.70224 26.4454 8.38974 26.1492 8.41833C25.7915 8.45366 25.2518 8.61555 24.6692 8.83736C24.3973 8.94098 24.1876 9.20413 24.1165 9.50661C24.0023 9.99047 23.951 10.9112 24.3478 11.7799C24.9301 13.0546 25.8204 13.68 25.4411 14.6226C25.3868 14.7575 25.2378 14.822 25.1149 14.7599C25.0096 14.7038 24.9512 14.5694 24.9806 14.4468C25.0538 14.1451 25.3053 13.4527 24.9027 13.2333C24.6656 13.1038 24.1582 13.1056 23.7893 13.1269C23.4921 13.1442 23.174 13.3638 23.0732 13.6667C22.8014 14.486 22.6032 15.2359 22.8003 16.3156C23.1034 17.979 24.6587 17.4138 25.2952 17.2588C25.8963 17.112 27.2005 16.925 27.4039 15.3563C27.546 14.2591 27.329 13.2886 26.8157 12.2626C25.9148 10.4599 26.554 9.77486 26.6304 8.99306H26.6299L26.6294 8.99252L26.6292 8.99234Z" fill="#3396FF"/>
<path d="M32.9515 4.96791C33.1548 2.83869 32.6179 1.6182 30.9087 2.04397C29.3702 2.42713 28.7528 2.72615 28.8602 4.15206C28.9493 5.33941 29.9772 6.60397 30.2718 7.0128C30.2718 7.0128 30.265 7.66129 29.689 8.44873C29.5263 8.67163 29.5062 8.97684 29.6304 9.2267C29.8106 9.58618 30.1414 10.0617 30.7085 10.3266C30.7285 10.4303 30.7506 10.5546 30.7722 10.6934C30.8676 11.4293 30.8601 12.5265 30.0224 12.7449C30.0224 12.7449 29.2573 12.9727 29.1245 12.0823C29.0834 11.6158 29.1377 10.9494 29.1636 10.0482C29.1984 8.82223 29.0108 5.07899 28.123 3.5298C27.9608 3.24698 27.6641 3.14391 27.3818 3.23187C26.4877 3.51013 25.3185 3.97451 24.5044 4.40282C24.1962 4.56472 24.0886 5.0178 24.3021 5.32411C25.1461 6.53331 26.8827 7.75071 27.2074 10.0974C27.4734 12.0177 27.4993 13.7035 27.6326 15.2368C27.7006 16.0119 28.3375 16.5338 28.9835 16.3462C29.5679 16.1772 30.2607 15.9722 30.8889 15.776C31.9215 15.4541 32.8199 14.4667 32.9063 13.2172C33.008 11.7471 32.9258 10.1902 32.1744 8.1936C32.128 8.07049 32.1343 7.93263 32.1897 7.8139C32.3808 7.39997 32.8209 6.32698 32.951 4.96882L32.9515 4.96773V4.96791ZM31.1984 5.26857C31.0619 5.2815 30.9344 5.04166 30.9144 4.73426C30.8949 4.42632 30.9898 4.1659 31.1261 4.15297C31.2625 4.14004 31.3901 4.37988 31.4102 4.68728C31.4302 4.99468 31.3348 5.25564 31.1984 5.26857Z" fill="#3396FF"/>
<path d="M38.2714 2.6477C38.0769 2.10774 37.6834 1.74207 37.1049 1.64919C36.4884 1.55067 36.1281 1.59438 35.9705 1.69672C35.7502 1.83895 35.6818 2.13306 35.6818 2.13306C35.6803 2.12796 35.6781 2.12304 35.676 2.11849C35.5227 1.72823 35.1597 1.45925 34.7739 1.46709C34.4867 1.47328 34.1753 1.46709 33.893 1.49167C33.2703 1.54594 32.8692 2.21464 32.9915 3.01883C33.2744 4.88089 33.3413 6.63733 33.3203 9.0448C33.2971 11.6905 33.0415 13.5001 32.9477 14.5993C32.9276 14.8408 33.0957 15.0435 33.3038 14.9644C33.9598 14.7158 34.6332 14.452 35.149 14.2291C35.5473 14.0566 35.8077 13.6332 35.8108 13.1615C35.8288 9.91619 34.7949 7.31532 35.1907 7.0682C35.5163 6.86496 35.4714 7.78498 35.5009 8.34405C35.5136 8.59099 35.6928 8.78985 35.9167 8.80387C36.2112 8.82172 36.4341 8.79659 36.5922 8.76181C36.7734 8.72265 36.9094 8.55803 36.9315 8.35589C37.0948 6.85713 36.7551 5.96498 37.0138 5.80382C37.2951 5.62845 37.4105 6.02453 37.1765 8.0463C37.0232 9.37078 36.5795 11.3008 36.3013 12.5613C36.1916 13.0576 36.6785 13.4551 37.0768 13.1941C37.7586 12.7478 38.3435 12.2812 38.7123 11.9604C39.0347 11.6797 39.2324 11.2603 39.254 10.8083C39.3251 9.32033 39.2114 6.8595 38.892 5.04661C38.7065 3.99366 38.4668 3.19238 38.2709 2.64915V2.64806L38.2714 2.64751V2.6477Z" fill="#3396FF"/>
<path d="M44.4239 3.95251C43.9766 3.7358 43.2633 3.30457 42.1631 2.99699C41.5188 2.8167 41.1625 3.20805 41.2589 3.82522L41.4549 3.8997C41.4549 3.8997 41.2599 3.8274 41.2604 3.83141C41.2673 3.87348 41.2762 3.91591 41.2873 3.95907C41.3632 4.30016 41.811 5.36476 42.4675 6.883C42.566 7.15908 42.9138 7.20952 43.0772 6.97042C43.1894 6.80579 43.3196 6.61148 43.4565 6.39641C43.6393 6.10959 43.5867 5.72152 43.3332 5.50371C43.2045 5.39336 43.0549 5.15315 42.9775 5.0255C42.5602 4.33949 43.008 4.21566 43.3321 5.09269C43.3786 5.21871 43.4322 5.32743 43.4839 5.42377C43.605 5.65231 43.9101 5.66288 44.0439 5.44216C44.2315 5.13239 44.426 4.80205 44.5908 4.49392C44.6961 4.29743 44.6192 4.04703 44.4258 3.95342H44.4253L44.4237 3.95233L44.4239 3.95251Z" fill="#3396FF"/>
<path d="M41.8791 5.69819C41.702 5.18192 41.0914 4.99088 40.6845 5.34144C40.6366 5.38296 40.5254 5.51008 40.4812 5.55706C40.5403 4.75232 41.0518 2.9367 40.4933 2.51038C40.0923 2.20462 38.6014 1.93401 38.5971 1.93346C38.5745 1.93073 38.5618 1.92836 38.5618 1.92836C38.4617 1.91543 38.3631 1.97589 38.3273 2.08061C38.3083 2.13724 38.3156 2.19989 38.3394 2.2547C38.359 2.30005 38.3783 2.34649 38.3973 2.39311C38.4021 2.41095 38.408 2.42843 38.4153 2.44519C38.4265 2.46977 38.4374 2.49563 38.4486 2.52131C39.0139 3.99093 39.2462 5.86701 39.2794 6.20537C39.4391 7.84525 39.4812 9.35948 39.4711 10.2959L39.4516 10.8968C39.4478 10.9859 39.5059 11.0658 39.5907 11.0828C39.6376 11.0917 39.6851 11.0766 39.724 11.0469C39.9611 10.8648 40.4652 10.3048 40.8384 9.87194C40.9338 9.76103 40.9554 9.59859 40.8922 9.46365C40.832 9.3349 40.7536 9.15443 40.6782 8.94045C40.6408 8.81443 40.6023 8.67275 40.566 8.51159C40.3895 7.72925 40.3111 6.84384 40.6008 6.91213C40.7704 6.95292 40.6746 7.11263 40.7693 8.42144C40.7851 8.64052 40.8204 8.85268 40.8605 9.03642C40.9163 9.29411 41.2308 9.37642 41.3968 9.17701C41.6235 8.90585 41.9091 8.55821 42.154 8.24389C42.3274 8.02153 42.397 7.73143 42.3427 7.45153C42.2563 7.00682 42.0924 6.3119 41.8811 5.69528L41.8801 5.69692L41.8791 5.69801V5.69819Z" fill="#3396FF"/>
<path d="M14.6788 17.454C15.0423 16.0521 14.9755 13.8193 13.9085 13.546C12.7071 13.2375 12.0613 14.3166 12.0613 14.3166C11.8468 12.8902 12.4911 13.0157 13.4965 12.2366C14.5003 11.4581 15.7322 10.9904 15.1288 8.11075C14.7869 6.47997 14.3343 5.46563 14.0055 4.89271C13.7816 4.50173 13.3252 4.33947 12.9228 4.50227C12.0966 4.83772 10.9902 5.41227 10.097 5.90014C9.56697 6.16456 9.10854 6.41204 8.54578 6.77371C8.14165 7.03358 8.43511 7.33042 8.60745 7.47428C9.61494 8.3189 10.4174 9.07046 11.6902 10.1793C11.9035 10.3647 12.2197 10.7298 11.5569 11.2075C11.1513 11.4998 11.1281 11.5626 10.4309 12.0268C10.0626 12.2721 9.84347 12.6833 9.84655 13.1084C9.84655 13.1575 9.85186 13.2063 9.85872 13.2544C9.85872 13.2544 9.85872 13.256 9.85974 13.2601C9.86403 13.287 9.97093 13.8246 10.0494 14.1566V14.1582C10.2479 15.0436 10.6695 16.6526 11.4118 18.3451C11.5736 18.7142 11.9172 18.9533 12.2996 18.9684C12.4613 18.9746 12.6563 18.9792 12.8892 18.9792C13.7998 18.9988 14.3067 18.889 14.6791 17.4542H14.6786V17.4536L14.6788 17.454ZM12.7719 16.5322C12.7909 16.3025 12.9357 16.1217 13.0965 16.1274C13.2572 16.133 13.3711 16.3238 13.3526 16.5535C13.3336 16.7831 13.1889 16.964 13.028 16.9583C12.8678 16.9527 12.7534 16.7618 12.7719 16.5322Z" fill="#3396FF"/>
<path d="M10.8873 19.2658C10.8071 19.2024 10.737 19.1354 10.6885 19.0855C10.6433 19.0396 10.5774 19.0256 10.5194 19.0507C10.1996 19.1908 9.94726 19.2693 9.75591 19.3152C9.13627 19.4177 8.70902 19.4148 8.13838 19.29C7.93657 19.2463 7.81117 19.0347 7.85914 18.8218C7.87592 18.7468 7.89391 18.665 7.91121 18.5822C7.95918 18.3509 7.80175 18.1286 7.57938 18.1129C7.20524 18.087 6.61095 17.9779 5.93804 17.5993C5.7979 17.5203 5.75936 17.3262 5.85581 17.1921C6.10969 16.841 6.57343 16.1712 6.89122 15.5452C6.97019 15.39 6.9397 15.1973 6.81738 15.0786C6.74783 15.0109 6.66406 14.9335 6.57343 14.8573C6.41069 14.7218 6.38585 14.4693 6.52016 14.3023C6.87323 13.8648 7.61022 13.1284 8.75048 12.8372C8.81626 12.8205 8.86697 12.7651 8.88427 12.6955C8.89797 12.6394 8.91853 12.5655 8.94697 12.4821C8.96479 12.4289 8.93858 12.3712 8.88735 12.3561C8.47158 12.2255 6.70552 11.8414 4.41353 13.7809L2.67111 15.2106C2.67111 15.2106 3.17271 15.7493 3.73393 16.0674C3.7329 16.0691 2.95942 17.621 1.37872 18.9641C1.37872 18.9641 3.61744 19.799 4.93414 19.7111C4.93414 19.7111 4.81765 20.325 4.79024 21.0266C4.79024 21.0266 6.71922 21.2814 8.37153 20.8726C8.37153 20.8726 9.05815 20.7427 9.81895 20.3253C10.2916 20.1068 10.6993 19.7306 10.9039 19.5222C10.975 19.4494 10.9661 19.3279 10.8866 19.2645L10.8871 19.2656L10.8873 19.2658Z" fill="#FF6B00"/>
<path d="M22.0717 17.743C22.0364 17.8499 22.0949 17.9468 22.2309 17.9244C22.3667 17.902 22.8985 17.7957 23.1328 17.7412C23.2504 17.7143 23.2745 17.5491 23.1719 17.483C22.9526 17.3424 22.7424 17.0326 22.6576 16.5875C22.6465 16.5304 22.6112 16.4817 22.5581 16.4655C22.4848 16.4442 22.4101 16.489 22.389 16.5664L22.0724 17.7414L22.0719 17.743H22.0717Z" fill="#3396FF"/>
<path d="M14.8221 5.16002L16.4701 6.06892C16.5767 6.1272 16.5851 6.28345 16.4881 6.35902C16.1851 6.59431 15.7746 7.47407 15.8901 9.22523C15.8964 9.3232 15.8238 9.40734 15.7309 9.40734C15.6492 9.40734 15.5807 9.34287 15.5723 9.25673C15.5212 8.75484 15.2824 6.85527 14.6054 5.38565C14.5374 5.23832 14.6861 5.08499 14.8219 5.16111V5.16002H14.8221Z" fill="#3396FF"/>
<path d="M24.5154 6.49343C24.6197 6.92575 24.6618 7.70317 24.5638 8.31469C24.5496 8.40538 24.6354 8.47932 24.723 8.4531C24.9517 8.3859 25.2403 8.19942 25.8889 8.14898C25.9917 8.14114 26.0471 8.04426 25.9981 7.95303C25.675 7.35717 25.1588 6.85091 24.7303 6.37924C24.6423 6.28236 24.4843 6.36522 24.5148 6.49233L24.5154 6.49343Z" fill="#3396FF"/>
<path d="M32.4857 7.84871C32.5664 7.65822 32.7185 7.2798 32.8261 6.89828C32.855 6.79521 32.9847 6.81251 32.9936 6.91959C33.0406 7.51144 33.0944 8.46077 33.0522 9.33053C33.0469 9.44088 32.9121 9.45928 32.8837 9.35402C32.7956 9.02586 32.6613 8.5755 32.4811 8.10402C32.4499 8.02226 32.4521 7.92938 32.4859 7.84925V7.84871H32.4857Z" fill="#3396FF"/>
<path d="M14.2668 18.9846C14.3764 19.0105 14.5018 19.0737 14.5777 19.2227C14.6061 19.2782 14.6767 19.2866 14.7125 19.2367C14.7747 19.1498 14.8796 19.0484 15.0641 18.997C15.1184 18.9824 15.142 18.9158 15.11 18.867C15.0272 18.7439 14.9171 18.4851 14.8919 17.9676C14.8871 17.8785 14.7713 17.8577 14.7406 17.9413C14.6264 18.2511 14.452 18.6246 14.2291 18.843C14.1821 18.8883 14.2054 18.9706 14.2675 18.9852H14.2669V18.9846H14.2668Z" fill="#FF6B00"/>
<path d="M41.9032 4.87994C41.9575 5.07152 42.0534 5.24671 42.184 5.3913C42.1317 5.19863 42.037 5.02162 41.9032 4.87994Z" fill="white"/>
<path d="M30.1188 9.2662C29.8226 8.88323 29.83 8.8153 29.9596 8.31195C29.6489 8.76831 29.6619 9.05113 30.132 9.35252C30.1614 9.37219 30.1911 9.39003 30.2216 9.40752C30.182 9.35379 30.1558 9.31628 30.1188 9.26584V9.26638V9.2662Z" fill="white"/>
<path d="M42.5061 7.95123C42.3779 8.14827 42.2632 8.35787 42.1583 8.57458C42.2015 8.52924 42.2452 8.48389 42.2885 8.43855C42.7016 8.02808 43.0747 7.54148 43.3123 6.94653C43.0394 7.27579 42.7432 7.57881 42.5061 7.95123Z" fill="#FF6B00"/>
<path d="M41.7979 4.53453C41.8095 4.54964 41.8217 4.56476 41.8337 4.57878C41.789 4.47134 41.7605 4.35697 41.7242 4.24552C41.7141 4.20182 41.7052 4.15756 41.6978 4.11331C41.6673 3.94031 41.6262 3.72852 41.6288 3.61033C41.6288 3.60632 41.6298 3.63382 41.6293 3.62544C41.6187 3.48267 41.6504 3.3348 41.7557 3.23792C41.5565 3.31185 41.4828 3.5393 41.4712 3.74527C41.4453 4.06177 41.5961 4.38483 41.7509 4.60154C41.7758 4.63851 41.8263 4.72356 41.8441 4.7292C41.8309 4.6631 41.8147 4.59863 41.7977 4.5338H41.7972L41.7977 4.53435L41.7979 4.53453Z" fill="white"/>
<path d="M10.9184 12.0233C10.8347 12.049 10.7672 12.1119 10.6935 12.1577C10.0007 12.6198 9.98631 13.6117 10.3079 14.3128C10.3216 14.3481 10.3368 14.3817 10.351 14.4164C10.3485 14.2327 10.3399 14.0502 10.3409 13.8665C10.333 13.3484 10.399 12.9109 10.5796 12.4864C10.6618 12.3375 10.7725 12.1907 10.8989 12.0709C10.9248 12.0563 10.9494 12.039 10.9174 12.0233H10.9184Z" fill="white"/>
<path d="M14.8105 8.21161C14.8352 8.33362 14.8526 8.47038 14.8643 8.61261C14.8701 8.77451 14.8669 8.93622 14.8537 9.09811C14.8352 9.47435 14.822 9.5787 14.7478 9.95165C14.6861 10.2093 14.5765 10.4361 14.5196 10.6063C14.4802 10.701 14.4259 10.7872 14.379 10.8784C14.333 10.9837 14.2794 11.084 14.2114 11.1752C14.135 11.3056 14.0307 11.4357 13.9532 11.5296C13.9954 11.5021 14.037 11.473 14.0776 11.4428C14.0033 11.5391 13.9764 11.5985 14.1007 11.5313C14.1513 11.5043 14.2741 11.3923 14.3157 11.351C14.7478 10.9052 15.0428 10.2977 15.0692 9.653C15.0849 9.16531 15.0281 8.64721 14.8105 8.21143V8.21161Z" fill="white"/>
<path d="M14.6661 15.192C14.6625 14.8879 14.6234 14.5794 14.4833 14.3083C14.1234 13.6441 13.5334 13.5035 12.9543 13.9672C13.1077 13.9045 13.23 13.877 13.3849 13.8603C13.5265 13.8479 13.73 13.8581 13.8786 13.9617C14.0824 14.0978 14.2373 14.3212 14.3433 14.5414C14.4556 14.7748 14.501 15.1165 14.5873 15.7287C14.5894 15.7438 14.6005 15.7522 14.6121 15.7533C14.6147 15.7976 14.6185 15.8385 14.6238 15.8558C14.6317 15.8059 14.6395 15.7557 14.6469 15.7058C14.6769 15.5388 14.6827 15.3652 14.6664 15.1939V15.1922L14.6661 15.192Z" fill="white"/>
<path d="M16.2262 18.7024C15.8944 18.667 15.8279 18.3075 15.7462 18.0253C15.6604 17.6853 15.5649 17.3487 15.47 17.0117C15.4863 17.6132 15.4294 19.0256 16.3263 18.7646C16.359 18.7568 16.3905 18.7473 16.4232 18.7382C16.3574 18.7275 16.2915 18.718 16.2267 18.7024H16.2262Z" fill="white"/>
<path d="M19.9651 20.5136C19.7671 20.886 19.5526 21.2512 19.3982 21.6478C19.3635 21.7212 19.3261 21.803 19.2865 21.8885C19.2787 21.902 19.2713 21.915 19.2629 21.9282C19.1527 22.122 19.0758 22.2054 18.972 22.3903C18.8213 22.6255 18.7512 22.774 18.5648 22.9537C18.5216 22.999 18.461 23.0562 18.4262 23.0943C18.4557 23.0792 18.4848 23.0641 18.5143 23.0484C18.5148 23.0484 18.5158 23.0478 18.5163 23.0473C18.5057 23.0573 18.4963 23.0668 18.4857 23.077C18.5163 23.0619 18.5478 23.0462 18.5783 23.03C18.6088 23.016 18.6385 22.9992 18.6679 22.9825C18.5968 23.0424 18.5151 23.0866 18.4403 23.1409C18.5778 23.0916 18.7317 23.0624 18.8375 22.9488C18.9914 22.7791 19.1558 22.6166 19.2848 22.4239C19.4077 22.2329 19.5399 22.0483 19.6506 21.8488C19.7803 21.5912 19.8998 21.328 20.022 21.0665C20.1385 20.7904 20.237 20.5071 20.356 20.2321C20.4556 19.9706 20.5426 19.7034 20.6533 19.4463C20.405 19.7879 20.1933 20.1565 19.9661 20.5133H19.9651V20.5138V20.5136Z" fill="white"/>
<path d="M14.2746 23.7209C14.146 23.4375 14.1998 23.0562 14.2277 22.7162C14.2345 22.5936 14.2513 22.472 14.2614 22.35C14.2614 22.34 14.2541 22.331 14.2447 22.3298C14.2351 22.3281 14.2261 22.3349 14.2236 22.3443C14.2231 22.3489 14.2231 22.3527 14.2226 22.3573C14.2052 22.378 14.2015 22.4312 14.1852 22.4636C14.0956 22.7772 13.9844 23.0975 13.9892 23.4292C14.0209 23.9886 14.4307 24.2798 14.934 24.1332C14.6695 24.0979 14.3808 23.987 14.2758 23.7204H14.2748V23.7209H14.2746Z" fill="white"/>
<path d="M23.1819 13.9499C23.0212 14.362 22.9859 14.8185 23.0112 15.2609C23.0229 15.4217 23.0402 15.583 23.0714 15.7402C23.0729 15.7127 23.0782 15.6652 23.082 15.6309C23.0868 15.6522 23.0916 15.6735 23.0957 15.6932C23.0972 15.5969 23.1041 15.5011 23.1099 15.4058C23.1627 15.0245 23.2348 14.6089 23.3211 14.2214C23.3549 14.0836 23.3802 13.9319 23.457 13.8248C23.5039 13.7525 23.6408 13.6858 23.6682 13.6747C23.8248 13.6002 23.9612 13.6019 24.1308 13.5795C23.7635 13.4842 23.3283 13.5156 23.1803 13.9497H23.1819V13.9499Z" fill="white"/>
<path d="M30.7143 15.4789C30.8892 15.4486 31.0514 15.3612 31.1727 15.2235C31.0078 15.2807 30.8501 15.3625 30.7143 15.4789Z" fill="white"/>
<path d="M32.6542 12.4905C32.6463 12.4508 32.6374 12.4109 32.6289 12.3712C32.6177 12.5085 32.6063 12.603 32.5905 12.7263C32.5905 12.7292 32.59 12.733 32.5895 12.7365C32.4709 13.4376 32.3471 13.7725 32.0199 14.3243C31.9102 14.5208 31.8323 14.6111 31.6995 14.7779C31.6231 14.8724 31.5589 14.9801 31.4677 15.0607C31.6173 14.9884 31.7411 14.8675 31.8782 14.7739C32.128 14.5896 32.3339 14.3405 32.4963 14.0688C32.7359 13.59 32.7656 13.0137 32.6539 12.4906H32.6544L32.6542 12.4905Z" fill="white"/>
<path d="M35.3313 11.879C35.3039 11.7753 35.275 11.6728 35.2465 11.5697C35.2503 11.7926 35.2529 12.0161 35.2628 12.239C35.277 12.5229 35.294 12.8081 35.2575 13.0914C35.2585 13.1676 35.1902 13.4919 35.0399 13.6902C34.963 13.796 34.8176 13.9819 34.6569 14.0664C34.9635 14.0031 35.2386 13.7707 35.3851 13.4795C35.6243 12.9732 35.4641 12.3936 35.3308 11.8795H35.3313V11.879Z" fill="white"/>
<path d="M40.4207 4.46785C40.4465 4.36259 40.4681 4.25551 40.4803 4.14698C40.5541 3.70063 40.5862 3.20329 40.3422 2.81303C40.2632 2.70322 40.1457 2.63766 40.0234 2.59341C39.9992 2.58503 39.9823 2.61908 40.0023 2.63547C40.0972 2.7105 40.1841 2.79628 40.2315 2.90937C40.3174 3.16814 40.3037 3.29252 40.3364 3.52489C40.3379 3.55567 40.3407 3.58645 40.3432 3.61722C40.3671 3.90787 40.3801 4.1996 40.408 4.49025C40.408 4.49753 40.408 4.50482 40.4085 4.51265C40.4085 4.51156 40.409 4.51046 40.4095 4.50864C40.4095 4.51083 40.4095 4.51429 40.4101 4.51647C40.4138 4.50027 40.4164 4.4846 40.4195 4.4684L40.4205 4.46785H40.4207Z" fill="white"/>
<path d="M41.2188 8.41721C41.1825 8.25076 41.1414 8.08504 41.0955 7.92151C41.0787 8.24621 41.0586 8.87412 41.5097 8.81366C41.3221 8.7756 41.2457 8.60023 41.2188 8.41721Z" fill="white"/>
<path d="M33.4541 3.31295C33.4678 3.36448 33.482 3.41657 33.4988 3.46701C33.4963 3.40874 33.4951 3.34992 33.4945 3.29164C33.492 3.00828 33.5435 2.72874 33.6194 2.45886C33.671 2.26965 33.7537 2.08863 33.904 1.96771C33.4478 2.18114 33.3297 2.84365 33.4536 3.31349H33.4541V3.31295Z" fill="white"/>
<path d="M20.2839 6.84075C19.9336 7.39472 20.1217 8.11205 20.2628 8.71082C20.2796 8.76072 20.3324 9.00092 20.325 8.87545C20.3314 8.54674 20.337 8.21731 20.3308 7.88805C20.3346 7.54697 20.2834 7.19695 20.4299 6.8901C20.5231 6.72657 20.6738 6.61238 20.8103 6.4931C20.6197 6.57706 20.4141 6.66283 20.2839 6.84148V6.84093V6.84075Z" fill="white"/>
<path d="M17.8706 23.2942C17.6914 23.3418 17.5546 23.4057 17.3939 23.4661C17.6563 23.4891 17.9201 23.4192 18.1442 23.2718C18.1716 23.2551 18.198 23.2371 18.2249 23.2187C18.1063 23.2394 17.9873 23.2624 17.8708 23.2937V23.2942H17.8706Z" fill="white"/>
<path d="M17.8929 7.43205C17.6205 7.15379 17.1553 6.7404 16.7823 7.05071C16.6005 7.22882 16.5927 7.50762 16.5894 7.75238C16.5841 8.07544 16.5947 8.40032 16.6346 8.72065C16.6684 8.40469 16.7232 8.08054 16.7679 7.75784C16.7964 7.50143 16.8443 7.27289 16.9533 7.19167C16.9886 7.16653 17.018 7.15688 17.0603 7.15087C17.2947 7.13467 17.5124 7.24721 17.7173 7.35866C17.7905 7.39617 17.8628 7.43423 17.9339 7.47521C17.9202 7.46064 17.9059 7.44552 17.8922 7.4315H17.8928V7.43205H17.8929Z" fill="white"/>
<path d="M22.4569 13.6862C22.4521 13.7075 22.4284 13.8044 22.4216 13.8435C22.4147 13.8827 22.4031 13.9852 22.3904 14.0082C22.5338 13.708 22.6681 13.4021 22.7782 13.0858C22.9542 12.5571 23.0417 11.9707 22.891 11.4224C22.7983 11.1631 22.6587 11.0762 22.4241 11.0611C22.4079 11.06 22.4025 11.084 22.4178 11.0902C22.4284 11.0948 22.4378 11.0981 22.4483 11.1026C22.5942 11.162 22.6996 11.2991 22.7229 11.4634C22.7503 11.6571 22.7508 11.8901 22.7387 12.0503C22.6871 12.7212 22.6338 12.8982 22.4884 13.5451C22.4783 13.5899 22.4683 13.6363 22.4574 13.6857" fill="white"/>
<path d="M25.7714 8.84012C25.8811 8.85305 26.0116 8.82046 26.0928 8.89621C26.1166 8.93701 26.0992 8.99073 26.0944 9.03625C26.0712 9.15772 26.0291 9.27263 25.9979 9.39191C25.8862 9.82642 25.9573 10.2802 26.0632 10.7086C26.0705 10.4297 26.0753 10.1497 26.1 9.87122C26.1259 9.63594 26.1543 9.47131 26.2049 9.19742C26.2724 8.77784 26.1195 8.72248 25.7713 8.83958H25.7708L25.7713 8.84012H25.7714Z" fill="white"/>
<path d="M13.8974 5.68709C13.7725 5.38133 13.5324 4.83136 13.146 4.9439C12.9795 4.98542 12.8262 5.08449 12.7282 5.2351C12.8546 5.11472 13.0285 5.0559 13.164 5.04588C13.213 5.0437 13.2646 5.04133 13.3115 5.05936C13.3674 5.08504 13.4111 5.1322 13.4532 5.17755C13.5712 5.30357 13.6697 5.44798 13.7657 5.59367C13.84 5.71131 13.9169 5.82768 13.9891 5.94714C13.9617 5.85918 13.9307 5.77304 13.8969 5.68727H13.8974V5.68709Z" fill="white"/>
<path d="M37.3684 12.6203C37.0897 12.6937 36.7689 12.6454 36.7425 12.2803C36.6539 12.7283 37.0902 12.8813 37.3995 12.6573C37.4322 12.6349 37.4637 12.6125 37.4944 12.5868C37.4527 12.5992 37.4111 12.6097 37.3684 12.6198V12.6203Z" fill="white"/>
<path d="M9.04224 7.10006C9.21509 6.99261 9.39994 6.89573 9.54795 6.75787C9.35934 6.83072 9.17021 6.93033 9.04224 7.10006Z" fill="white"/>
<path d="M29.0102 15.9336C28.7361 15.9593 28.5043 15.7549 28.3784 15.5523C28.3046 15.4027 28.2667 15.1631 28.2167 14.9648C28.1235 14.5206 28.0439 14.0653 28.0007 13.6257C27.9423 14.0459 27.9327 14.4747 27.9664 14.8976C27.9971 15.1596 28.0238 15.433 28.1429 15.6699C28.4099 16.1 28.8668 16.2658 29.2842 15.9549C29.341 15.9157 29.3974 15.8753 29.4522 15.8329C29.3068 15.8755 29.1608 15.9258 29.0095 15.9332H29.0101V15.9338L29.0102 15.9336Z" fill="white"/>
<path d="M15.3547 16.265C15.3474 16.2443 15.3441 16.2231 15.3427 16.2594C15.3237 16.4251 15.3438 16.5983 15.4234 16.7443C15.4219 16.5819 15.4092 16.4183 15.3549 16.265H15.3547Z" fill="white"/>
<path d="M17.6299 22.2385C17.6779 22.2223 17.7226 22.1967 17.7622 22.1624C17.7142 22.1792 17.6695 22.205 17.6299 22.2385Z" fill="#FF6B00"/>
<path d="M14.134 19.3352C14.0276 19.1223 13.7689 19.1325 13.5729 19.1447C13.2579 19.1655 12.9406 19.2001 12.6329 19.2745C12.9591 19.2891 13.2848 19.3261 13.6115 19.3385C13.7985 19.3457 13.8813 19.3614 13.9371 19.4057C13.9392 19.4078 13.9424 19.4102 13.9445 19.4124C13.9813 19.4521 13.9897 19.4521 14.0125 19.5306C14.0183 19.5473 14.0163 19.6169 14.0163 19.6291C14.0163 19.8442 14.0051 19.9556 13.9741 20.1157C13.9442 20.2776 13.914 20.4641 13.8962 20.6165C13.981 20.365 14.0838 20.1208 14.1559 19.8655C14.1912 19.6936 14.1975 19.5009 14.1359 19.3352H14.1343H14.134Z" fill="#FF6B00"/>
<path d="M13.5481 22.1679C13.7009 21.749 13.7931 21.3076 13.8105 20.8585C13.6615 21.2792 13.5613 21.7177 13.5481 22.1679Z" fill="#FF6B00"/>
<path d="M11.4822 10.3303C11.3383 10.1891 10.9474 9.95458 10.7156 9.78595C10.9395 10.089 11.2045 10.3538 11.4718 10.612C11.5144 10.6535 11.5175 10.724 11.4781 10.7693C11.3859 10.8751 11.2621 10.9525 11.1613 11.0471C11.126 11.0829 10.8932 11.2605 11.0054 11.1993C11.2441 11.0756 11.5281 10.9899 11.7015 10.7653C11.8106 10.5821 11.6019 10.4299 11.4812 10.3303H11.4822Z" fill="#FF6B00"/>
<path d="M10.0516 12.104C9.87925 12.1658 9.76704 12.2994 9.67796 12.4255C9.45816 12.7441 9.45028 13.1278 9.5911 13.4684C9.60789 13.5097 9.62485 13.5513 9.64318 13.592C9.64215 13.5483 9.64267 13.5046 9.64215 13.4609C9.64113 13.3691 9.63838 13.252 9.6353 13.1384C9.62742 12.8265 9.71702 12.5172 9.90238 12.267C9.95137 12.2004 10.0026 12.1421 10.0516 12.104Z" fill="#FF6B00"/>
<path d="M9.67126 13.7791C9.68446 13.9156 9.72711 14.0702 9.80506 14.1706C9.78296 14.0327 9.74442 13.8967 9.67126 13.7791Z" fill="#FF6B00"/>
<path d="M24.0391 17.8007C23.7698 17.8679 23.4995 17.9306 23.2271 17.981C22.9588 18.0247 22.6943 18.0874 22.4288 18.1469L22.472 18.1413C22.296 18.1637 22.1295 18.2427 22.0046 18.3669C21.7838 18.5545 21.7053 18.8368 21.6152 19.099C21.4982 19.4406 21.3487 19.7715 21.2496 20.1188C21.208 20.5012 21.6012 19.6409 21.8244 19.1953C21.9429 18.9719 22.1057 18.7552 22.2559 18.6146C22.3786 18.5071 22.4024 18.5042 22.4709 18.4767C22.5042 18.464 22.5372 18.4516 22.571 18.4403C22.8154 18.3596 23.0546 18.2627 23.297 18.1766C23.5524 18.0786 23.7964 17.9548 24.0357 17.8239C24.0611 17.8098 24.0873 17.7964 24.1126 17.7818C24.0885 17.788 24.0641 17.7942 24.0395 17.8002H24.039V17.8007H24.0391Z" fill="#FF6B00"/>
<path d="M19.0884 6.59375C19.0884 6.59375 19.0899 6.59323 19.0911 6.59271H19.0922C19.0922 6.59271 19.0901 6.59375 19.0878 6.59427L19.0884 6.59375Z" fill="#FF6B00"/>
<path d="M19.15 6.55389C19.1074 6.57465 19.0051 6.62272 18.8507 6.66752C18.7301 6.70285 18.6025 6.70012 18.492 6.63784C18.3123 6.53641 18.1348 6.43005 17.9662 6.30968C18.0658 6.45191 18.1823 6.57956 18.3008 6.7034C18.3102 6.71178 18.3193 6.72124 18.3287 6.73035C18.5204 6.92575 18.8004 6.99477 19.0479 6.89388C19.3604 6.76786 19.6612 6.50235 19.9026 6.32206C19.9632 6.27271 20.0239 6.223 20.0844 6.17365C19.7577 6.284 19.4642 6.40656 19.1502 6.55279V6.55389H19.15Z" fill="#FF6B00"/>
<path d="M29.113 2.31605C28.5619 2.455 28.0456 2.69411 27.5265 2.92265C27.4948 2.92885 27.4638 2.93722 27.4384 2.95562C27.4138 2.99422 27.461 2.99532 27.4869 2.99095C27.8116 2.92703 28.1281 2.83069 28.4464 2.74055C28.9432 2.58594 29.3126 2.41129 29.7763 2.18439C29.7916 2.1771 29.8058 2.16982 29.821 2.16199C29.5829 2.20351 29.3458 2.25322 29.1123 2.3166H29.1128V2.31605H29.113Z" fill="#FF6B00"/>
<path d="M12.0471 19.1813C11.8547 19.1365 11.6335 19.0229 11.5508 18.9058C11.4675 18.7989 11.3416 18.5944 11.2363 18.413C11.1862 18.3267 11.1372 18.2354 11.0766 18.1588C11.0672 18.1577 11.075 18.165 11.0776 18.1695C11.2025 18.4658 11.2873 18.8735 11.5333 19.0779C11.7003 19.1993 11.9275 19.2492 12.1276 19.2325C12.1708 19.2296 12.2144 19.2241 12.2578 19.219C12.1877 19.2072 12.1171 19.1977 12.0476 19.1826H12.0471V19.1815V19.1813Z" fill="#FF6B00"/>
<path d="M32.6085 2.9556C32.5148 2.66878 32.3402 2.40163 32.0843 2.25503C31.8688 2.1414 31.7228 2.15815 31.4588 2.17053C31.2149 2.19184 30.9846 2.28144 30.7491 2.34754C30.9476 2.3419 31.1453 2.31458 31.3446 2.33243C31.5238 2.33971 31.8088 2.41984 31.8746 2.46628C32.1871 2.69701 32.2524 2.92883 32.4057 3.45749C32.4847 3.79239 32.492 3.9419 32.4942 4.41356C32.4785 4.78543 32.4204 5.15329 32.4136 5.52698C32.5369 5.02454 32.7243 4.53576 32.7502 4.01201C32.7812 3.65363 32.7286 3.29178 32.6068 2.95688H32.6078L32.6083 2.95579L32.6085 2.9556Z" fill="white"/>
<path d="M28.4982 6.48506C28.4919 6.33264 28.485 6.18149 28.4787 6.02924C28.467 5.6714 28.4287 5.31684 28.348 4.97192C28.2616 4.55125 28.0167 3.68933 27.6641 3.52653C27.5229 3.48118 27.377 3.54164 27.243 3.597C27.0676 3.68096 26.8942 3.77165 26.7229 3.86798C27.0242 3.80351 27.3598 3.68369 27.57 3.73923C27.6581 3.77292 27.7513 3.98344 27.8241 4.16773C27.9774 4.58549 28.1165 4.99942 28.2731 5.54939C28.348 5.84787 28.4095 6.15144 28.4881 6.44937C28.4924 6.46394 28.495 6.47851 28.4992 6.49198V6.48524H28.4982V6.48506Z" fill="white"/>
<path d="M36.1665 8.53869C35.9441 8.43962 35.7781 8.1976 35.7428 7.94611C35.6481 8.23347 35.8629 8.58057 36.1564 8.57329C36.1865 8.57329 36.2165 8.5711 36.246 8.56546C36.2185 8.55817 36.1922 8.5487 36.1653 8.53796H36.1658L36.1663 8.53851L36.1665 8.53869Z" fill="white"/>
<path d="M33.1406 15.2325C32.7887 15.3142 32.4409 15.4184 32.0927 15.5164C31.7975 15.6116 31.5109 15.7298 31.2418 15.8591C31.6675 15.7566 32.1 15.6748 32.5143 15.5293C32.7435 15.443 32.9616 15.3293 33.1824 15.2235C33.1687 15.2263 33.1545 15.2297 33.1408 15.2325H33.1406Z" fill="#FF6B00"/>
<path d="M36.3363 13.6469C36.1913 13.7 36.0649 13.7953 35.9268 13.8619C36.1386 13.8468 36.3383 13.7416 36.5096 13.6126C36.5286 13.5986 36.548 13.5835 36.567 13.5695C36.4891 13.5908 36.4116 13.6164 36.3373 13.6474H36.3368L36.3363 13.6469Z" fill="#FF6B00"/>
<path d="M36.4094 10.7464C36.4637 10.5785 36.5744 10.1494 36.626 9.88665C36.6775 9.60547 36.6907 9.31592 36.7277 9.04822C36.5307 9.5858 36.3942 10.1673 36.4089 10.7462H36.4094V10.7464Z" fill="#FF6B00"/>
<path d="M42.0492 2.7351C41.7816 2.59852 41.5013 2.47633 41.2061 2.39237C40.9005 2.31115 40.5824 2.27528 40.2641 2.26581C40.7662 2.42479 41.2673 2.5896 41.789 2.69486C41.8902 2.71616 41.9918 2.73692 42.0925 2.75878C42.0783 2.75149 42.0641 2.74366 42.0499 2.73583H42.0493V2.73528L42.0492 2.7351Z" fill="#FF6B00"/>
<path d="M38.4595 4.56294C38.4595 4.55839 38.4595 4.55456 38.459 4.55001C38.4078 3.99057 38.2956 3.4366 38.1275 2.90357C37.9094 2.20409 37.3936 1.80582 36.6938 1.94367C36.7671 1.97336 36.885 1.9739 36.9773 2.00577C37.0364 2.02307 37.1474 2.07242 37.2302 2.12451C37.2355 2.12851 37.2413 2.13179 37.2459 2.1358C37.531 2.35815 37.6168 2.49255 37.7486 2.79212C37.7501 2.79667 37.7528 2.80104 37.7539 2.80559C38.0004 3.48886 38.2418 4.17487 38.47 4.86597C38.5157 5.04352 38.4631 4.64034 38.4593 4.56294H38.4595Z" fill="white"/>
<path d="M25.7178 16.7434C25.8891 16.7256 26.0493 16.6522 26.1846 16.5402C26.0171 16.5715 25.8579 16.6411 25.7178 16.7434Z" fill="white"/>
<path d="M38.9433 9.40009C38.939 9.37259 38.9017 9.37368 38.8986 9.40118C38.8602 9.79891 38.8522 10.1808 38.7869 10.5106C38.741 10.7918 38.6293 11.0992 38.5592 11.2667C38.5565 11.274 38.5592 11.2678 38.5666 11.247C38.5039 11.414 38.3279 11.6307 38.263 11.7293C38.2524 11.7433 38.2435 11.756 38.2336 11.7701C38.1798 11.8283 38.1234 11.8842 38.0708 11.9441C38.0919 11.9318 38.1124 11.9196 38.133 11.9072C38.103 11.9487 38.0708 11.99 38.0345 12.0383C38.0708 12.0132 38.1078 11.9879 38.1446 11.9627C38.3333 11.8283 38.5239 11.6899 38.6848 11.5191C38.8023 11.3741 38.8929 11.2037 38.9609 11.028C39.1544 10.5049 39.0195 9.93585 38.9436 9.40046V9.39991L38.9433 9.40009Z" fill="white"/>
<path d="M27.1109 14.3616C27.0871 14.2585 27.0592 14.1258 27.0335 14.04C27.0282 14.2203 27.0271 14.4002 27.0324 14.5805C27.0372 14.7939 27.0093 14.8936 26.9766 15.1013C26.9476 15.2683 26.9228 15.4373 26.8634 15.5958C26.8349 15.6557 26.7532 15.8646 26.6842 15.9935C26.5583 16.18 26.456 16.3475 26.2643 16.4814C26.4777 16.4231 26.6494 16.2617 26.8001 16.0984C26.9103 15.9534 26.9977 15.7859 27.073 15.6173C27.1416 15.4537 27.1578 15.2716 27.1726 15.0953C27.2005 14.8478 27.1731 14.6007 27.1119 14.3616H27.1109Z" fill="white"/>
<path d="M43.9867 5.16567C43.775 5.33194 43.5925 5.05368 43.4915 4.88013C43.5094 4.99158 43.5379 5.10703 43.6079 5.19481C43.7181 5.34214 43.9047 5.35379 44.0085 5.19263C44.0253 5.16968 44.0412 5.14673 44.0554 5.12215C44.0333 5.13836 44.0107 5.15238 43.9874 5.1664H43.9869V5.16586L43.9867 5.16567Z" fill="white"/>
<path d="M43.0668 6.62891C43.0082 6.6748 42.9345 6.73654 42.8581 6.70558C42.7454 6.64512 42.6789 6.49506 42.6357 6.37341C42.6025 6.65969 42.8475 7.00624 43.0714 6.67917C43.0925 6.64785 43.1082 6.61252 43.1214 6.5761C43.1041 6.59395 43.0861 6.61143 43.0671 6.62709L43.0666 6.62873L43.0668 6.62891Z" fill="white"/>
<path d="M32.9799 1.6273C32.7538 1.65188 32.5367 1.72691 32.3288 1.8227C32.3108 1.83454 32.2287 1.85511 32.2666 1.88097C32.2719 1.88043 32.2765 1.87879 32.2818 1.87697C32.2829 1.87697 32.2829 1.87806 32.2839 1.87861C32.5832 1.81869 32.8746 1.72746 33.1643 1.62711C33.1795 1.62202 33.1937 1.6171 33.209 1.612C33.1321 1.61309 33.0556 1.61764 32.9792 1.62657H32.9798V1.62711L32.9799 1.6273Z" fill="#FF6B00"/>
<path d="M30.2501 10.5767C30.199 11.0633 30.1937 11.5552 30.0452 12.0234C30.4245 11.5652 30.4113 11.1312 30.2501 10.5767Z" fill="#FF6B00"/>
<path d="M24.3785 12.5884C24.252 12.3442 24.1457 12.0876 24.0196 11.8431C23.8558 11.5276 23.6766 11.2091 23.6255 10.8467C23.489 11.5333 23.8763 12.2093 24.3421 12.6534C24.3821 12.6899 24.4228 12.7257 24.4643 12.7598C24.4353 12.7026 24.4059 12.6456 24.3774 12.5879H24.378L24.3785 12.5884Z" fill="#FF6B00"/>
<path d="M18.3724 18.2018C18.2133 18.3372 18.0688 18.4969 17.8924 18.6066C18.1495 18.5634 18.3882 18.419 18.5932 18.2526C18.7935 18.0745 18.9352 17.8353 19.0479 17.5884C18.8276 17.7995 18.5996 17.9994 18.3724 18.2021V18.2016V18.2018Z" fill="#FF6B00"/>
<path d="M43.5209 6.56229C43.5984 6.51421 43.6854 6.36853 43.7438 6.25653C43.6395 6.32883 43.5668 6.44082 43.5209 6.56229Z" fill="#FF6B00"/>
<path d="M30.0208 2.0713C30.2178 2.08477 30.4133 2.02704 30.5956 1.94928C30.397 1.9471 30.2062 1.99973 30.0208 2.0713Z" fill="#FF6B00"/>
<path d="M24.4437 17.7252C24.692 17.7314 24.9374 17.6782 25.1655 17.5768C24.9172 17.5711 24.6702 17.6165 24.4437 17.7252Z" fill="#FF6B00"/>
<path d="M23.2618 4.79438C23.4674 4.70988 23.666 4.66618 23.8741 4.55072C23.6607 4.5866 23.4268 4.63977 23.2618 4.79438Z" fill="#FF6B00"/>
<path d="M27.1899 16.8749C27.5904 16.8682 27.9781 16.7545 28.3485 16.5983C27.9469 16.6005 27.5603 16.717 27.1899 16.8749Z" fill="#FF6B00"/>
<path d="M14.7325 20.3053C14.7325 20.3636 14.7229 20.4105 14.7521 20.3244C14.8036 20.1876 14.8732 20.023 14.9328 19.8668C14.9755 19.7615 15.0087 19.6484 15.082 19.561C14.848 19.7132 14.7449 20.0259 14.7327 20.3053H14.7325Z" fill="white"/>
<path d="M17.7422 12.8875C17.8201 13.1725 17.7559 13.4682 17.6917 13.7494C17.8881 13.4979 17.9471 13.1541 17.7422 12.8875Z" fill="white"/>
<path d="M15.525 5.94184C15.407 5.869 15.2927 5.77212 15.1572 5.74189C14.9544 5.74079 15.0986 6.00904 15.143 6.11266C15.2088 6.24815 15.2788 6.38145 15.3374 6.52095C15.3321 6.3148 15.2732 6.11721 15.2021 5.92673C15.1947 5.90433 15.1843 5.88302 15.1767 5.86062C15.2526 5.86845 15.358 5.9138 15.4354 5.92327C15.4654 5.92946 15.4956 5.93565 15.5261 5.94111H15.5255L15.525 5.94166V5.94184Z" fill="white"/>
<path d="M24.8842 7.09167C24.8537 7.39525 24.839 7.70046 24.8042 8.00349C24.9565 7.72578 24.9555 7.3958 24.8842 7.09167Z" fill="white"/>
<path d="M22.3846 17.1253C22.2972 17.2675 22.2397 17.4311 22.2414 17.603C22.312 17.454 22.3642 17.3309 22.3884 17.1594C22.3894 17.1391 22.4069 17.0798 22.3836 17.1257H22.3841L22.3846 17.1251V17.1253Z" fill="white"/>
<path d="M32.5789 8.05048C32.6258 8.22293 32.6911 8.3892 32.7832 8.53998C32.7522 8.36188 32.6858 8.19216 32.5789 8.05048Z" fill="white"/>
<path d="M19.8461 15.3181C19.8466 15.3029 19.8471 15.2873 19.8476 15.2727C19.8461 15.2773 19.8449 15.2816 19.8428 15.2867C19.837 15.2117 19.8308 15.1361 19.8255 15.0611C19.8234 15.0729 19.8207 15.0846 19.8187 15.0964C19.7796 15.317 19.7585 15.5053 19.7328 15.6945C19.7255 15.7298 19.7171 15.7639 19.7097 15.7992C19.6881 15.9308 19.6353 16.0977 19.5886 16.2339C19.5665 16.2792 19.5444 16.3246 19.5228 16.3699C19.3847 16.6595 19.2878 16.7423 19.0197 16.8969C18.8442 16.9798 18.6988 17.0912 18.5107 17.1147C18.5348 17.1204 18.5592 17.1231 18.5838 17.1249C18.5701 17.1295 18.5569 17.1333 18.5427 17.1373C18.693 17.1492 18.8415 17.1098 18.9869 17.0734C19.1207 17.0408 19.2573 17.0073 19.3779 16.9344C19.5142 16.8332 19.6434 16.701 19.7076 16.5356C19.7525 16.4074 19.7762 16.2718 19.8079 16.1397C19.8294 16.0204 19.8337 15.8988 19.8363 15.7779C19.8378 15.7671 19.8401 15.7571 19.8411 15.746C19.8611 15.6043 19.8569 15.4621 19.8469 15.3204L19.8464 15.3182L19.8461 15.3181Z" fill="white"/>
<path d="M9.30602 20.1328C8.63945 20.3142 8.00199 20.3204 7.28385 20.3423C6.63629 20.3687 5.98924 20.434 5.34442 20.5069C6.6822 20.7219 8.0969 20.8458 9.3593 20.1658C9.42252 20.1345 9.48573 20.1024 9.54792 20.0689C9.46723 20.0913 9.3862 20.1121 9.305 20.1323H9.30551L9.30602 20.1328Z" fill="white"/>
<path d="M3.14841 17.957C2.9281 18.1082 2.71053 18.2673 2.51352 18.4527C2.36859 18.5906 2.23274 18.7383 2.08044 18.8672C2.50461 18.6778 2.84964 18.3363 3.15372 17.9778C3.19106 17.9308 3.22327 17.9033 3.14789 17.9576H3.14841V17.957Z" fill="white"/>
<path d="M7.41251 12.9071C7.06526 13.0718 6.7939 13.3775 6.57154 13.6984C6.54104 13.7467 6.5114 13.7953 6.48468 13.8457C6.52888 13.7975 6.57325 13.7516 6.62002 13.7068C6.86448 13.4839 7.117 13.2734 7.39983 13.1025C7.72019 12.9255 8.06161 12.7789 8.41143 12.6837C8.07155 12.6864 7.72653 12.7687 7.41302 12.9066L7.41251 12.9071Z" fill="white"/>
<path d="M7.31864 14.8056C7.18211 14.7484 7.03255 14.698 6.88402 14.7109C7.0173 14.74 7.13585 14.8224 7.24858 14.9003C7.35976 14.9742 7.45192 15.1008 7.41612 15.2789C7.38186 15.4759 7.2717 15.6397 7.1648 15.8121C7.00685 16.058 6.84599 16.3022 6.68376 16.5447C6.66474 16.5739 6.64487 16.6025 6.62585 16.6311C6.81241 16.4697 6.99469 16.3029 7.16275 16.1197C7.34657 15.9046 7.55368 15.6801 7.60217 15.3832C7.65493 15.1458 7.54375 14.8832 7.31813 14.8058H7.31864V14.8056Z" fill="#FF6B00"/>
</g>
<defs>
<clipPath id="clip0_1_443">
<rect width="46" height="26" fill="white"/>
</clipPath>
</defs>
</svg>
