<svg width="18" height="18" viewBox="0 0 18 18" fill="none" xmlns="http://www.w3.org/2000/svg">
<path d="M4.8264 11.085C4.71696 11.085 4.60858 11.1065 4.50746 11.1484C4.40635 11.1903 4.31447 11.2516 4.23708 11.329C4.15969 11.4064 4.09831 11.4983 4.05644 11.5994C4.01457 11.7005 3.99304 11.8089 3.99307 11.9183V13.4036C2.91894 12.1888 2.32615 10.6232 2.3264 9.00168C2.32625 8.75661 2.34092 8.51175 2.37034 8.26845C2.38383 8.15965 2.37572 8.04925 2.34647 7.94359C2.31722 7.83793 2.26741 7.73908 2.19989 7.65271C2.13237 7.56634 2.04847 7.49414 1.95299 7.44025C1.85752 7.38636 1.75234 7.35184 1.64351 7.33867C1.53467 7.3255 1.4243 7.33394 1.31872 7.3635C1.21315 7.39306 1.11445 7.44317 1.02828 7.51094C0.942103 7.57872 0.870152 7.66284 0.816545 7.75847C0.762939 7.8541 0.728732 7.95938 0.715884 8.06825C0.678136 8.37796 0.659385 8.68968 0.659734 9.00168C0.660866 10.9901 1.37553 12.9122 2.67379 14.4183H1.49307C1.27205 14.4183 1.06009 14.5061 0.903811 14.6624C0.747531 14.8187 0.659734 15.0307 0.659734 15.2517C0.659734 15.4727 0.747531 15.6847 0.903811 15.8409C1.06009 15.9972 1.27205 16.085 1.49307 16.085H4.8264C4.95673 16.0834 5.08479 16.0506 5.1999 15.9895C5.31501 15.9283 5.41385 15.8406 5.48818 15.7335C5.49789 15.7207 5.5103 15.7112 5.51935 15.6977C5.5249 15.6894 5.52505 15.6796 5.53023 15.6711C5.56995 15.604 5.5997 15.5315 5.61857 15.4559C5.6309 15.4134 5.63967 15.3699 5.64476 15.326C5.64715 15.3002 5.65976 15.2781 5.65976 15.2517V11.9184C5.65979 11.8089 5.63826 11.7005 5.59639 11.5994C5.55452 11.4983 5.49314 11.4064 5.41574 11.329C5.33835 11.2516 5.24647 11.1903 5.14535 11.1484C5.04423 11.1065 4.93585 11.085 4.8264 11.085ZM6.0764 4.00168H4.59101C5.80584 2.9276 7.37151 2.33483 8.99307 2.33501C9.23802 2.33442 9.48277 2.3491 9.72589 2.37896C9.83458 2.39216 9.9448 2.38382 10.0503 2.35442C10.1557 2.32502 10.2544 2.27514 10.3406 2.20762C10.4267 2.1401 10.4988 2.05626 10.5526 1.9609C10.6064 1.86554 10.6408 1.76052 10.654 1.65183C10.6672 1.54314 10.6589 1.43292 10.6295 1.32746C10.6001 1.22199 10.5502 1.12335 10.4827 1.03716C10.4152 0.950978 10.3313 0.878935 10.236 0.825149C10.1406 0.771362 10.0356 0.736886 9.9269 0.723687C9.61703 0.686305 9.30518 0.667823 8.99307 0.668346C7.00462 0.669427 5.08258 1.38404 3.5764 2.68225V1.50168C3.5764 1.28067 3.4886 1.0687 3.33232 0.912423C3.17604 0.756143 2.96408 0.668346 2.74307 0.668346C2.52205 0.668346 2.31009 0.756143 2.15381 0.912423C1.99753 1.0687 1.90973 1.28067 1.90973 1.50168V4.83501C1.91497 4.89009 1.92595 4.94447 1.94249 4.99727L1.94269 4.99829C1.96293 5.10083 2.00288 5.19847 2.06033 5.28579L2.06985 5.29987C2.12491 5.37996 2.19393 5.44949 2.2736 5.50515C2.28271 5.51182 2.28723 5.52204 2.29669 5.5284C2.3086 5.53628 2.32208 5.53878 2.33423 5.546C2.38149 5.57443 2.43157 5.59789 2.48367 5.616C2.55407 5.64049 2.62748 5.6553 2.70187 5.66004C2.71631 5.6608 2.72847 5.66837 2.74307 5.66837H6.0764C6.29741 5.66837 6.50938 5.58057 6.66566 5.42429C6.82194 5.26801 6.90973 5.05605 6.90973 4.83504C6.90973 4.61402 6.82194 4.40206 6.66566 4.24578C6.50938 4.0895 6.29741 4.0017 6.0764 4.0017V4.00168ZM16.0434 13.0051C16.0232 12.9025 15.9833 12.8048 15.9257 12.7175L15.9163 12.7035C15.8612 12.6234 15.7922 12.5538 15.7124 12.4981C15.7033 12.4915 15.6989 12.4813 15.6894 12.4749C15.6804 12.469 15.6698 12.4688 15.6606 12.4632C15.5549 12.4044 15.4391 12.3661 15.3192 12.3503C15.2928 12.3478 15.2701 12.335 15.2431 12.335H11.9097C11.6887 12.335 11.4768 12.4228 11.3205 12.579C11.1642 12.7353 11.0764 12.9473 11.0764 13.1683C11.0764 13.3893 11.1642 13.6013 11.3205 13.7576C11.4768 13.9138 11.6887 14.0016 11.9097 14.0016H13.3951C12.1803 15.0757 10.6146 15.6685 8.99307 15.6683C8.7481 15.6686 8.50334 15.6537 8.26023 15.6235C8.04073 15.5969 7.81963 15.6585 7.64557 15.7949C7.47151 15.9313 7.35875 16.1312 7.33209 16.3507C7.30544 16.5702 7.36707 16.7913 7.50343 16.9653C7.6398 17.1394 7.83972 17.2522 8.05923 17.2788C8.3691 17.3162 8.68094 17.3349 8.99307 17.335C10.9815 17.3339 12.9036 16.6193 14.4097 15.3211V16.5017C14.4097 16.7227 14.4975 16.9347 14.6538 17.0909C14.8101 17.2472 15.0221 17.335 15.2431 17.335C15.4641 17.335 15.676 17.2472 15.8323 17.0909C15.9886 16.9347 16.0764 16.7227 16.0764 16.5017V13.1683C16.0712 13.1133 16.0602 13.0589 16.0436 13.0061L16.0434 13.0051ZM16.4931 3.58501C16.7141 3.58501 16.926 3.49722 17.0823 3.34093C17.2386 3.18465 17.3264 2.97269 17.3264 2.75168C17.3264 2.53067 17.2386 2.3187 17.0823 2.16242C16.926 2.00614 16.7141 1.91835 16.4931 1.91835H13.1597C13.1055 1.92358 13.0519 1.93438 12.9999 1.9506L12.9943 1.95171C12.8931 1.97196 12.7967 2.01143 12.7104 2.06799L12.6941 2.07902C12.6144 2.134 12.5451 2.2028 12.4897 2.28217C12.4831 2.29117 12.473 2.2956 12.4668 2.3049C12.4608 2.31385 12.4606 2.32444 12.455 2.33354C12.3956 2.43986 12.357 2.55659 12.3414 2.67742C12.339 2.70316 12.3264 2.72534 12.3264 2.75168V6.08501C12.3264 6.30603 12.4142 6.51799 12.5705 6.67427C12.7268 6.83055 12.9387 6.91835 13.1597 6.91835C13.3807 6.91835 13.5927 6.83055 13.749 6.67427C13.9053 6.51799 13.9931 6.30603 13.9931 6.08501V4.59928C15.0671 5.81425 15.6599 7.37999 15.6597 9.00164C15.6599 9.24671 15.6452 9.49158 15.6158 9.73488C15.5894 9.95423 15.6511 10.1751 15.7873 10.349C15.9235 10.523 16.1232 10.6357 16.3425 10.6626C16.3763 10.6665 16.4103 10.6684 16.4442 10.6683C16.6477 10.668 16.8441 10.5933 16.9962 10.4582C17.1484 10.3232 17.2459 10.1371 17.2703 9.93507C17.308 9.62538 17.3267 9.31366 17.3264 9.00168C17.3253 7.01319 16.6105 5.09115 15.3122 3.58501H16.4931Z" fill="#8A8EA8"/>
</svg>
