<svg width="18" height="17" viewBox="0 0 18 17" fill="none" xmlns="http://www.w3.org/2000/svg">
<path d="M9.00002 10.1667C9.16484 10.1667 9.32595 10.1178 9.463 10.0262C9.60004 9.93466 9.70685 9.80451 9.76992 9.65224C9.83299 9.49996 9.8495 9.33241 9.81734 9.17076C9.78519 9.00911 9.70582 8.86062 9.58928 8.74408C9.47273 8.62753 9.32425 8.54817 9.1626 8.51601C9.00094 8.48386 8.83339 8.50036 8.68112 8.56343C8.52885 8.62651 8.3987 8.73332 8.30713 8.87036C8.21556 9.0074 8.16669 9.16852 8.16669 9.33333C8.16669 9.55435 8.25448 9.76631 8.41076 9.92259C8.56705 10.0789 8.77901 10.1667 9.00002 10.1667ZM13.1667 10.1667C13.3315 10.1667 13.4926 10.1178 13.6297 10.0262C13.7667 9.93466 13.8735 9.80451 13.9366 9.65224C13.9997 9.49996 14.0162 9.33241 13.984 9.17076C13.9519 9.00911 13.8725 8.86062 13.7559 8.74408C13.6394 8.62753 13.4909 8.54817 13.3293 8.51601C13.1676 8.48386 13.0001 8.50036 12.8478 8.56343C12.6955 8.62651 12.5654 8.73332 12.4738 8.87036C12.3822 9.0074 12.3334 9.16852 12.3334 9.33333C12.3334 9.55435 12.4212 9.76631 12.5774 9.92259C12.7337 10.0789 12.9457 10.1667 13.1667 10.1667ZM9.00002 13.5C9.16484 13.5 9.32595 13.4511 9.463 13.3596C9.60004 13.268 9.70685 13.1378 9.76992 12.9856C9.83299 12.8333 9.8495 12.6657 9.81734 12.5041C9.78519 12.3424 9.70582 12.194 9.58928 12.0774C9.47273 11.9609 9.32425 11.8815 9.1626 11.8493C9.00094 11.8172 8.83339 11.8337 8.68112 11.8968C8.52885 11.9598 8.3987 12.0667 8.30713 12.2037C8.21556 12.3407 8.16669 12.5018 8.16669 12.6667C8.16669 12.8877 8.25448 13.0996 8.41076 13.2559C8.56705 13.4122 8.77901 13.5 9.00002 13.5ZM13.1667 13.5C13.3315 13.5 13.4926 13.4511 13.6297 13.3596C13.7667 13.268 13.8735 13.1378 13.9366 12.9856C13.9997 12.8333 14.0162 12.6657 13.984 12.5041C13.9519 12.3424 13.8725 12.194 13.7559 12.0774C13.6394 11.9609 13.4909 11.8815 13.3293 11.8493C13.1676 11.8172 13.0001 11.8337 12.8478 11.8968C12.6955 11.9598 12.5654 12.0667 12.4738 12.2037C12.3822 12.3407 12.3334 12.5018 12.3334 12.6667C12.3334 12.8877 12.4212 13.0996 12.5774 13.2559C12.7337 13.4122 12.9457 13.5 13.1667 13.5ZM4.83335 10.1667C4.99817 10.1667 5.15929 10.1178 5.29633 10.0262C5.43337 9.93466 5.54018 9.80451 5.60325 9.65224C5.66633 9.49996 5.68283 9.33241 5.65067 9.17076C5.61852 9.00911 5.53915 8.86062 5.42261 8.74408C5.30607 8.62753 5.15758 8.54817 4.99593 8.51601C4.83428 8.48386 4.66672 8.50036 4.51445 8.56343C4.36218 8.62651 4.23203 8.73332 4.14046 8.87036C4.04889 9.0074 4.00002 9.16852 4.00002 9.33333C4.00002 9.55435 4.08782 9.76631 4.2441 9.92259C4.40038 10.0789 4.61234 10.1667 4.83335 10.1667ZM14.8334 1.83333H14V1C14 0.778987 13.9122 0.567025 13.7559 0.410745C13.5997 0.254464 13.3877 0.166667 13.1667 0.166667C12.9457 0.166667 12.7337 0.254464 12.5774 0.410745C12.4212 0.567025 12.3334 0.778987 12.3334 1V1.83333H5.66669V1C5.66669 0.778987 5.57889 0.567025 5.42261 0.410745C5.26633 0.254464 5.05437 0.166667 4.83335 0.166667C4.61234 0.166667 4.40038 0.254464 4.2441 0.410745C4.08782 0.567025 4.00002 0.778987 4.00002 1V1.83333H3.16669C2.50365 1.83333 1.86776 2.09673 1.39892 2.56557C0.930079 3.03441 0.666687 3.67029 0.666687 4.33333V14.3333C0.666687 14.9964 0.930079 15.6323 1.39892 16.1011C1.86776 16.5699 2.50365 16.8333 3.16669 16.8333H14.8334C15.4964 16.8333 16.1323 16.5699 16.6011 16.1011C17.07 15.6323 17.3334 14.9964 17.3334 14.3333V4.33333C17.3334 3.67029 17.07 3.03441 16.6011 2.56557C16.1323 2.09673 15.4964 1.83333 14.8334 1.83333ZM15.6667 14.3333C15.6667 14.5543 15.5789 14.7663 15.4226 14.9226C15.2663 15.0789 15.0544 15.1667 14.8334 15.1667H3.16669C2.94567 15.1667 2.73371 15.0789 2.57743 14.9226C2.42115 14.7663 2.33335 14.5543 2.33335 14.3333V6.83333H15.6667V14.3333ZM15.6667 5.16667H2.33335V4.33333C2.33335 4.11232 2.42115 3.90036 2.57743 3.74408C2.73371 3.5878 2.94567 3.5 3.16669 3.5H14.8334C15.0544 3.5 15.2663 3.5878 15.4226 3.74408C15.5789 3.90036 15.6667 4.11232 15.6667 4.33333V5.16667ZM4.83335 13.5C4.99817 13.5 5.15929 13.4511 5.29633 13.3596C5.43337 13.268 5.54018 13.1378 5.60325 12.9856C5.66633 12.8333 5.68283 12.6657 5.65067 12.5041C5.61852 12.3424 5.53915 12.194 5.42261 12.0774C5.30607 11.9609 5.15758 11.8815 4.99593 11.8493C4.83428 11.8172 4.66672 11.8337 4.51445 11.8968C4.36218 11.9598 4.23203 12.0667 4.14046 12.2037C4.04889 12.3407 4.00002 12.5018 4.00002 12.6667C4.00002 12.8877 4.08782 13.0996 4.2441 13.2559C4.40038 13.4122 4.61234 13.5 4.83335 13.5Z" fill="#3396FF"/>
</svg>
