<svg width="20" height="22" viewBox="0 0 20 22" fill="none" xmlns="http://www.w3.org/2000/svg">
<path d="M0.500031 7.86L9.50003 13.06C9.65205 13.1478 9.82449 13.194 10 13.194C10.1756 13.194 10.348 13.1478 10.5 13.06L19.5 7.86C19.6512 7.77275 19.7768 7.64746 19.8646 7.49659C19.9523 7.34572 19.999 7.17452 20 7C20.0007 6.82379 19.9549 6.65053 19.8671 6.49775C19.7792 6.34497 19.6526 6.21811 19.5 6.13L10.5 0.940005C10.348 0.852237 10.1756 0.80603 10 0.80603C9.82449 0.80603 9.65205 0.852237 9.50003 0.940005L0.500031 6.13C0.347426 6.21811 0.220812 6.34497 0.133009 6.49775C0.0452054 6.65053 -0.000669067 6.82379 3.05002e-05 7C0.00108387 7.17452 0.0477894 7.34572 0.135505 7.49659C0.223221 7.64746 0.348893 7.77275 0.500031 7.86ZM10 3L17 7L10 11L3.00003 7L10 3ZM18.5 10.17L10 15L1.50003 10.13C1.3859 10.0639 1.25981 10.021 1.12903 10.0038C0.998253 9.98663 0.865367 9.99549 0.738027 10.0299C0.610687 10.0643 0.491408 10.1235 0.387061 10.2042C0.282714 10.2849 0.195361 10.3854 0.130031 10.5C-0.000341877 10.7296 -0.0346082 11.0015 0.0347087 11.2563C0.104026 11.5111 0.271299 11.7281 0.500031 11.86L9.50003 17.06C9.65205 17.1478 9.82449 17.194 10 17.194C10.1756 17.194 10.348 17.1478 10.5 17.06L19.5 11.86C19.7288 11.7281 19.896 11.5111 19.9654 11.2563C20.0347 11.0015 20.0004 10.7296 19.87 10.5C19.8047 10.3854 19.7173 10.2849 19.613 10.2042C19.5087 10.1235 19.3894 10.0643 19.262 10.0299C19.1347 9.99549 19.0018 9.98663 18.871 10.0038C18.7402 10.021 18.6142 10.0639 18.5 10.13V10.17ZM18.5 14.17L10 19L1.50003 14.13C1.3859 14.0639 1.25981 14.021 1.12903 14.0038C0.998253 13.9866 0.865367 13.9955 0.738027 14.0299C0.610687 14.0643 0.491408 14.1235 0.387061 14.2042C0.282714 14.2849 0.195361 14.3854 0.130031 14.5C-0.000341877 14.7296 -0.0346082 15.0015 0.0347087 15.2563C0.104026 15.5111 0.271299 15.7281 0.500031 15.86L9.50003 21.06C9.65205 21.1478 9.82449 21.194 10 21.194C10.1756 21.194 10.348 21.1478 10.5 21.06L19.5 15.86C19.7288 15.7281 19.896 15.5111 19.9654 15.2563C20.0347 15.0015 20.0004 14.7296 19.87 14.5C19.8047 14.3854 19.7173 14.2849 19.613 14.2042C19.5087 14.1235 19.3894 14.0643 19.262 14.0299C19.1347 13.9955 19.0018 13.9866 18.871 14.0038C18.7402 14.021 18.6142 14.0639 18.5 14.13V14.17Z" fill="white" fill-opacity="0.7"/>
</svg>
