<svg width="18" height="18" viewBox="0 0 18 18" fill="none" xmlns="http://www.w3.org/2000/svg">
<path d="M16.5583 13.025L14.8333 11.2583C14.4623 10.9056 13.9942 10.6719 13.4893 10.5873C12.9844 10.5027 12.4658 10.5709 12 10.7833L11.25 10.0333C12.1338 8.85244 12.5374 7.38058 12.3796 5.91404C12.2218 4.44751 11.5143 3.0952 10.3995 2.12935C9.28471 1.16349 7.84542 0.65581 6.37136 0.708499C4.8973 0.761189 3.49793 1.37034 2.45495 2.41332C1.41196 3.4563 0.802815 4.85567 0.750125 6.32973C0.697436 7.80379 1.20512 9.24308 2.17097 10.3579C3.13683 11.4727 4.48913 12.1802 5.95567 12.338C7.4222 12.4958 8.89407 12.0921 10.075 11.2083L10.8166 11.95C10.5792 12.4164 10.4941 12.9455 10.5734 13.4628C10.6526 13.9801 10.8922 14.4594 11.2583 14.8333L13.025 16.6C13.4937 17.0682 14.1291 17.3311 14.7916 17.3311C15.4541 17.3311 16.0896 17.0682 16.5583 16.6C16.7964 16.3672 16.9856 16.0891 17.1148 15.7822C17.244 15.4752 17.3105 15.1455 17.3105 14.8125C17.3105 14.4795 17.244 14.1498 17.1148 13.8429C16.9856 13.5359 16.7964 13.2578 16.5583 13.025ZM9.49164 9.49168C8.9085 10.0733 8.16606 10.4691 7.35809 10.6291C6.55012 10.789 5.71288 10.7058 4.95214 10.3902C4.19139 10.0745 3.54127 9.54044 3.0839 8.85546C2.62652 8.17048 2.38242 7.36532 2.38242 6.54168C2.38242 5.71804 2.62652 4.91287 3.0839 4.2279C3.54127 3.54292 4.19139 3.00886 4.95214 2.69319C5.71288 2.37752 6.55012 2.29439 7.35809 2.4543C8.16606 2.61422 8.9085 3.01001 9.49164 3.59168C9.87967 3.97873 10.1875 4.43852 10.3976 4.94473C10.6076 5.45094 10.7158 5.99362 10.7158 6.54168C10.7158 7.08974 10.6076 7.63242 10.3976 8.13863C10.1875 8.64484 9.87967 9.10463 9.49164 9.49168ZM15.3833 15.3833C15.3058 15.4615 15.2137 15.5234 15.1121 15.5658C15.0106 15.6081 14.9016 15.6298 14.7916 15.6298C14.6816 15.6298 14.5727 15.6081 14.4712 15.5658C14.3696 15.5234 14.2774 15.4615 14.2 15.3833L12.4333 13.6167C12.3552 13.5392 12.2932 13.447 12.2509 13.3455C12.2086 13.2439 12.1868 13.135 12.1868 13.025C12.1868 12.915 12.2086 12.8061 12.2509 12.7045C12.2932 12.603 12.3552 12.5108 12.4333 12.4333C12.5108 12.3552 12.6029 12.2932 12.7045 12.2509C12.806 12.2086 12.915 12.1868 13.025 12.1868C13.135 12.1868 13.2439 12.2086 13.3455 12.2509C13.447 12.2932 13.5392 12.3552 13.6166 12.4333L15.3833 14.2C15.4614 14.2775 15.5234 14.3696 15.5657 14.4712C15.608 14.5727 15.6298 14.6817 15.6298 14.7917C15.6298 14.9017 15.608 15.0106 15.5657 15.1122C15.5234 15.2137 15.4614 15.3059 15.3833 15.3833Z" fill="#8A8EA8"/>
</svg>
